<svg xmlns="http://www.w3.org/2000/svg" viewBox="0 0 1024 1024">
  <path d="m 596.87087,951.13456 c -5.58771,-5.59427 -6.85842,-7.99612 -10.38774,-19.63456 -3.30954,-10.91369 -5.4071,-15.18217 -9.14155,-18.60278 -4.8514,-4.4437 -12.0974,-8.89968 -15.54437,-9.55914 -4.707,-0.90051 -13.35736,-5.40829 -22.97958,-11.97486 -10.34944,-7.06285 -15.78122,-9.51055 -22.81763,-10.28219 -4.39078,-0.48151 -5.47235,-0.95169 -5.3629,-2.33133 0.0754,-0.9505 -0.29046,-1.46394 -0.81302,-1.14098 C 508.02787,878.71884 505,874.78738 505,871.34501 505,869.23797 504.51058,868 503.67758,868 c -0.72733,0 -3.87105,-1.3804 -6.98604,-3.06755 -4.86312,-2.63398 -6.61964,-3.04727 -12.42758,-2.92412 -11.18892,0.23725 -11.04228,0.28038 -14.28999,-4.20296 -1.67122,-2.30705 -2.81523,-4.77665 -2.54226,-5.488 0.27297,-0.71136 -0.05,-1.18628 -0.7177,-1.05537 -0.6677,0.1309 -1.15232,-0.54466 -1.07691,-1.50124 0.0754,-0.95658 -0.20184,-1.52977 -0.61608,-1.27375 -0.41424,0.25601 -2.86071,-1.52529 -5.43661,-3.95845 -2.57589,-2.43316 -6.43915,-5.87605 -8.58502,-7.65087 -2.14587,-1.77481 -3.62906,-3.66789 -3.29597,-4.20682 0.33308,-0.53894 0.16547,-0.70787 -0.37247,-0.37541 -0.53794,0.33247 -3.00928,-0.8355 -5.49187,-2.59549 -2.48259,-1.75998 -8.16225,-4.52047 -12.62147,-6.1344 -4.45922,-1.61394 -7.83788,-3.37097 -7.50813,-3.90451 0.34141,-0.55241 0.0765,-0.64681 -0.61533,-0.21925 -1.33342,0.8241 -3.85246,-0.0535 -15.09415,-5.25866 -4.125,-1.90996 -9.075,-3.77289 -11,-4.13983 -2.0529,-0.39133 -3.38639,-1.18913 -3.22522,-1.92958 0.15112,-0.69432 -0.12315,-1.01647 -0.60949,-0.71589 -1.18128,0.73007 -6.40372,-5.20305 -5.65136,-6.42039 0.32447,-0.525 -0.0629,-0.70403 -0.86084,-0.39783 -0.79793,0.30619 -1.79084,0.007 -2.20645,-0.66596 -0.41561,-0.67248 -0.34863,-0.97134 0.14885,-0.66414 0.49748,0.3072 0.97529,-0.61778 1.0618,-2.05552 0.1297,-2.15555 -0.0106,-2.31412 -0.79969,-0.90404 -1.19475,2.1349 -3.28585,2.26841 -2.47604,0.15809 0.34379,-0.89592 0.17468,-1.29184 -0.40008,-0.93662 -0.54758,0.33843 -1.29599,-0.2007 -1.66313,-1.19806 -0.36714,-0.99736 -1.27343,-2.17854 -2.01397,-2.62484 -0.74055,-0.4463 -1.04245,-1.30333 -0.6709,-1.90451 0.37993,-0.61475 0.2179,-0.81021 -0.37029,-0.44669 -1.57494,0.97337 -10.08057,-3.12759 -11.3304,-5.46292 C 362.51523,781.22569 357.11393,779 352.10355,779 c -4.76048,0 -6.18883,-1.27624 -8.55703,-7.64576 -0.99264,-2.66983 -3.07768,-6.20604 -4.63341,-7.85825 -1.96633,-2.08827 -2.91769,-4.24737 -3.12085,-7.08276 -0.16075,-2.24331 -0.74226,-4.16263 -1.29226,-4.26516 -0.55,-0.10252 -3.925,-0.57065 -7.5,-1.04028 -3.575,-0.46963 -9.875,-2.23741 -14,-3.92839 -4.125,-1.69099 -11.55,-4.64317 -16.5,-6.56041 -4.95,-1.91724 -8.8875,-3.96584 -8.75,-4.55244 0.1375,-0.5866 -0.25751,-0.95405 -0.8778,-0.81655 C 285.80336,735.48693 275,720.68322 275,718.98167 c 0,-0.44207 -3.78737,-2.00973 -8.41637,-3.4837 -7.53378,-2.39891 -8.53866,-3.01121 -9.58258,-5.83896 -0.64142,-1.73745 -1.51071,-3.82625 -1.93174,-4.64176 -1.15714,-2.24127 5.15174,-13.6167 6.93921,-12.51198 0.43005,0.26578 1.05826,-0.2369 1.39601,-1.11708 0.42341,-1.10337 1.34145,-1.41778 2.95633,-1.01247 3.40851,0.85548 3.73412,-0.10042 1.38844,-4.07606 -1.67241,-2.83452 -1.85661,-3.89818 -0.93158,-5.37939 0.94435,-1.51215 0.8842,-1.74312 -0.33235,-1.27628 -1.03086,0.39558 -1.48537,-0.0899 -1.48537,-1.58666 0,-2.09068 -2.5938,-8.04383 -3.94631,-9.05733 -1.25664,-0.94167 -2.89679,-6.49976 -3.54111,-12 -0.35436,-3.025 -1.51098,-7.46141 -2.57028,-9.85868 -1.0593,-2.39728 -1.63251,-4.87228 -1.27382,-5.5 0.35869,-0.62773 0.27372,-0.79752 -0.18882,-0.37732 C 252.1896,642.43596 247,636.91914 247,634.37578 c 0,-2.00218 -0.37606,-2.18901 -3.41389,-1.69604 -3.05966,0.49651 -3.5827,0.22754 -5.04086,-2.59224 -0.89484,-1.73043 -1.31406,-3.65255 -0.93161,-4.27138 0.40355,-0.65295 0.24835,-0.84886 -0.36981,-0.46681 -0.58586,0.36208 -2.45539,-1.23205 -4.15451,-3.5425 -3.17339,-4.31513 -3.97403,-6.47162 -1.93481,-5.21132 0.72104,0.44563 0.88282,0.27393 0.4309,-0.45729 -0.39798,-0.64395 -1.09152,-0.94344 -1.5412,-0.66552 -1.18049,0.72958 -2.49846,-1.14901 -6.53182,-9.31018 -1.96904,-3.98419 -3.27031,-7.74517 -2.89172,-8.35775 0.40116,-0.64908 0.2367,-0.83464 -0.39417,-0.44474 -1.09467,0.67655 -2.86519,-2.99865 -2.34129,-4.86001 0.1548,-0.55 -0.0234,-0.69512 -0.39606,-0.32248 -0.81287,0.81287 -7.10781,-6.15689 -6.71437,-7.43415 0.15112,-0.49062 -0.18259,-0.60936 -0.7416,-0.26388 C 207.74113,585.89606 193.5,573.11017 193.5,569.63577 c 0,-0.51981 -0.68713,-1.04596 -1.52697,-1.16922 -0.83983,-0.12326 -3.26512,-1.40366 -5.38954,-2.84533 C 184.45907,564.17955 182.39168,563 181.98928,563 c -0.40239,0 -1.03009,-2.25 -1.39489,-5 l -0.66328,-5 h -4.81254 c -5.36322,0 -8.37394,-1.91127 -10.08022,-6.39914 -1.47282,-3.8738 -1.28667,-11.879 0.32756,-14.08659 1.22205,-1.67126 1.70127,-1.72908 4.5502,-0.54902 2.62853,1.08877 3.61186,1.09015 5.63409,0.008 3.07111,-1.6436 3.14864,-2.97313 0.17337,-2.97313 -2.05187,0 -2.23888,-0.39367 -1.89583,-3.99087 0.26657,-2.79524 -0.25326,-5.06516 -1.73515,-7.57677 -1.16365,-1.97224 -1.816,-4.07088 -1.44965,-4.66364 0.36988,-0.59848 0.20307,-0.79158 -0.37512,-0.43424 -1.41303,0.8733 -3.62422,-1.9488 -2.6994,-3.44518 0.43044,-0.69648 0.31798,-0.93712 -0.26855,-0.57463 -0.55503,0.34303 -2.053,-0.48744 -3.32882,-1.84549 C 162.59091,505.00009 160.53325,504 158.89079,504 c -3.62148,0 -7.84694,-1.64458 -8.31174,-3.23499 -0.20334,-0.69576 -1.12379,-3.96501 -2.04544,-7.26501 -0.92166,-3.3 -2.38923,-7.69222 -3.26127,-9.76048 -1.75138,-4.15381 -1.19805,-7.08492 3.25443,-17.23952 1.2058,-2.75 2.50515,-7.11767 2.88746,-9.70594 0.76467,-5.17695 2.81331,-9.90809 5.11885,-11.82151 2.25163,-1.86869 -0.0304,-3.93055 -4.17767,-3.77463 -1.97216,0.0741 -4.13536,-0.5493 -5.03803,-1.45197 -1.44252,-1.44252 -1.39267,-1.88806 0.56589,-5.05707 1.18128,-1.91135 3.71579,-4.67117 5.63225,-6.13292 1.91647,-1.46176 3.48448,-3.25877 3.48448,-3.99335 0,-1.65082 -5.57136,-2.59125 -6.98377,-1.17884 -1.68313,1.68313 -3.78886,-1.38538 -4.55234,-6.63377 -0.60888,-4.18563 -0.46956,-4.7681 1.17257,-4.90231 1.02495,-0.0838 2.53854,-0.2173 3.36354,-0.29671 0.825,-0.0794 1.37005,-0.73823 1.21122,-1.46403 -0.15883,-0.7258 0.41935,-2.40038 1.28485,-3.7213 1.44184,-2.20052 1.43399,-2.45526 -0.0937,-3.04148 -0.91703,-0.3519 -2.50161,-0.11879 -3.52129,0.51801 -4.20814,2.62803 -6.8811,0.22173 -6.8811,-6.19465 0,-6.73606 -1.80627,-8.13103 -6.525,-5.0392 -2.26662,1.48515 -2.50387,1.48 -3.0976,-0.0672 -0.84024,-2.18964 1.35609,-4.59038 2.50251,-2.73543 0.63866,1.03337 1.03385,1.00314 1.9929,-0.15243 0.98722,-1.18953 0.42816,-1.81324 -3.19932,-3.56927 -2.41757,-1.17033 -5.08715,-1.86248 -5.93241,-1.53813 -1.81443,0.69626 -5.68331,-3.08579 -5.86608,-5.73442 -0.20688,-2.99801 -0.28702,-3.18283 -2.95342,-6.81144 -1.41454,-1.925 -3.29902,-5.43706 -4.18773,-7.80457 l -1.61583,-4.30458 4.82295,-5.32566 4.82294,-5.32567 -0.48078,-6.86976 c -0.26443,-3.77837 -0.4597,-8.74657 -0.43393,-11.04044 0.0262,-2.32679 -0.54768,-4.66412 -1.29793,-5.28677 -0.73964,-0.61385 -1.13,-1.93748 -0.86747,-2.94141 0.28773,-1.10029 -0.17787,-2.07675 -1.17218,-2.45831 -1.1579,-0.44433 -1.46043,-1.30504 -1.01506,-2.8879 0.47379,-1.68391 0.38203,-1.88829 -0.36235,-0.80708 -1.76183,2.55906 -3.58736,-3.10177 -2.46476,-7.64305 0.5173,-2.09264 0.87359,-5.1548 0.79177,-6.8048 -0.0818,-1.65 -0.21907,-4.6247 -0.305,-6.61045 -0.0859,-1.98575 -1.22997,-5.19272 -2.54234,-7.12659 -1.68135,-2.47762 -2.60045,-5.65049 -3.11182,-10.74243 -0.67872,-6.7584 -0.60516,-7.18873 1.13612,-6.64624 1.024,0.31903 2.53682,0.13701 3.36182,-0.40448 1.27763,-0.83857 1.15881,-1.24927 -0.80151,-2.77033 -2.11482,-1.64093 -2.2182,-2.14733 -1.27445,-6.24264 2.81943,-12.23462 -0.89791,-46.30991 -5.67631,-52.03227 -0.96125,-1.15114 -2.52367,-3.01063 -3.47205,-4.13218 -2.19621,-2.59725 -5.985644,-12.64364 -5.230175,-13.86602 C 97.860396,191.41687 97.70982,191 97.210891,191 c -0.498928,0 -1.699016,-1.75606 -2.666861,-3.90236 -0.967846,-2.1463 -3.489487,-5.59143 -5.603647,-7.65585 -3.329235,-3.25092 -3.694566,-4.0339 -2.728436,-5.84765 0.982413,-1.84431 0.927757,-1.93933 -0.458132,-0.79647 -1.325669,1.0932 -1.812289,0.95693 -3.088281,-0.8648 -0.833061,-1.18936 -1.275459,-2.78581 -0.983107,-3.54767 C 81.97478,167.62334 81.715833,167 81.106989,167 c -0.608844,0 -1.11767,-0.5625 -1.130724,-1.25 -0.01305,-0.6875 -1.106955,-3.88458 -2.43089,-7.10463 -1.95947,-4.76578 -2.20177,-6.3054 -1.30282,-8.27837 0.735822,-1.61496 1.348037,-2.02944 1.834647,-1.24209 0.434062,0.70233 0.738682,0.20678 0.750946,-1.22162 0.07131,-8.3052 1.599912,-16.49189 3.304306,-17.69675 1.336434,-0.94474 1.759255,-2.34584 1.568335,-5.19697 -0.143765,-2.14693 -0.609039,-4.25115 -1.033942,-4.67606 -0.424904,-0.4249 -0.447296,0.0751 -0.04976,1.11102 0.516003,1.34468 0.374349,1.66821 -0.495124,1.13085 C 80.016457,121.2741 82.802338,107 85.161813,107 c 0.505545,0 2.25404,0.98691 3.885545,2.19313 2.297696,1.69876 3.235328,1.92418 4.159508,1 0.656224,-0.65622 2.565634,-1.17945 4.243134,-1.16272 2.56448,0.0256 2.77016,0.19337 1.29208,1.05412 -0.966856,0.56304 -2.316856,0.68798 -3,0.27763 -0.829092,-0.49801 -0.785746,-0.18351 0.130365,0.94588 1.458785,1.7984 3.671511,2.38112 2.627555,0.69196 -1.437503,-2.32593 1.53429,-0.74796 3.91111,2.07673 2.67402,3.17789 3.3831,5.92327 1.52987,5.92327 -0.58246,0 -0.7809,0.45 -0.44098,1 0.33992,0.55 0.14148,1 -0.44098,1 -2.05415,0 -1.00407,1.77029 4.19098,7.06545 6.03678,6.1531 10.19854,8.16697 17.25,8.34724 3.61393,0.0924 6.10886,0.87107 9,2.80896 2.36913,1.58799 5.26419,2.64064 7.10063,2.58181 1.70535,-0.0546 4.85535,0.80805 7,1.91707 10.20511,5.27717 10.63409,5.27332 17.75111,-0.15922 l 4.31173,-3.29122 1.00003,2.64937 c 0.70713,1.87341 2.2596,3.06507 5.30055,4.06868 5.94142,1.96084 7.03595,3.36374 7.03595,9.01819 0,2.67491 0.52297,6.13027 1.16215,7.67857 1.10995,2.68864 1.88337,8.75947 2.07855,16.3151 0.0497,1.925 0.26998,2.96278 0.48946,2.30618 0.21948,-0.65661 1.01765,-0.95645 1.77371,-0.66632 0.75606,0.29013 1.94898,-0.39212 2.65092,-1.51612 1.10436,-1.76836 1.48419,-1.85544 2.82001,-0.64655 1.89018,1.71059 10.0252,0.91016 10.0252,-0.98641 0,-2.02862 2.9928,-4.00389 4.44355,-2.93279 6.16278,4.55001 6.01664,4.50644 10.63615,3.17111 6.3275,-1.82906 8.56832,-1.23901 9.30622,2.4505 1.10549,5.52744 0.72735,6.67282 -2.74736,8.32167 -1.8488,0.87731 -3.87448,2.7211 -4.50152,4.09731 -1.0497,2.30383 -0.8823,2.61581 2.11144,3.93519 4.61925,2.03577 7.43654,4.40614 6.24665,5.25572 -0.54732,0.39078 -1.10802,1.83551 -1.24599,3.21051 -0.13797,1.375 -0.42197,4.26452 -0.6311,6.42116 -0.20914,2.15664 -0.0454,5.08888 0.36396,6.51609 0.7613,2.65448 -1.01007,5.62516 -2.53577,4.25264 -0.42178,-0.37944 -0.45597,-0.14808 -0.076,0.51412 0.38,0.66221 0.4126,2.31292 0.0724,3.66825 -0.51874,2.06684 -1.41064,2.57319 -5.53059,3.13983 -3.96021,0.54467 -4.91211,1.05106 -4.91211,2.61313 0,1.06565 -0.64659,2.18567 -1.43686,2.48892 -0.79027,0.30326 -1.2219,1.11153 -0.95918,1.79617 0.59814,1.55875 -1.34404,6.81101 -2.86652,7.75196 -0.62559,0.38664 -1.13744,2.34529 -1.13744,4.35257 0,3.01299 0.68901,4.23921 3.95,7.02983 2.1725,1.85913 4.738,3.39713 5.70111,3.41778 3.16997,0.068 9.46624,7.75187 11.89022,14.5107 l 2.28997,6.38515 2.89585,-1.67915 c 1.59273,-0.92353 3.12526,-2.25842 3.40564,-2.96641 0.66462,-1.67824 7.17323,-4.38885 8.52795,-3.55159 0.63762,0.39407 0.74784,0.16174 0.28135,-0.59305 -0.47336,-0.76591 0.43321,-2.47914 2.36838,-4.47573 2.81555,-2.90491 3.11287,-3.78846 2.91531,-8.66359 -0.27393,-6.75984 2.24465,-11.49664 5.25592,-9.88506 3.14266,1.68191 7.18266,-0.0393 12.12045,-5.16378 4.63272,-4.80789 4.79354,-4.87994 10.89194,-4.87994 5.4426,0 6.92711,-0.46165 12.29785,-3.82434 3.35943,-2.10339 6.95897,-4.1386 7.99896,-4.52269 2.41462,-0.89176 6.4004,1.66791 7.62898,4.89933 0.51184,1.34623 1.60092,2.4477 2.42019,2.4477 2.00885,0 3.55993,3.1422 3.55993,7.21175 0,1.83878 0.70107,4.34415 1.55793,5.5675 0.85687,1.22334 1.28349,2.66831 0.94806,3.21105 -0.34912,0.5649 0.0537,0.73218 0.94207,0.39126 0.99069,-0.38017 1.55194,-0.0357 1.55194,0.95243 0,2.12302 1.81317,3.06595 3.38581,1.76078 0.71402,-0.59258 1.53488,-0.84075 1.82414,-0.55148 0.28927,0.28926 0.31996,-0.55159 0.0682,-1.86857 -0.35627,-1.86369 0.0609,-2.53337 1.88206,-3.02095 3.80282,-1.01817 4.20528,-0.81025 7.26906,3.75545 1.89102,2.81803 4.06872,4.71496 6.14402,5.35189 l 3.21475,0.98664 -0.89402,-3.11727 c -1.4355,-5.00531 -1.09428,-6.06783 2.58498,-8.04924 1.91345,-1.03046 3.74758,-2.71978 4.07585,-3.75404 0.7932,-2.49916 5.03459,-5.19873 6.98937,-4.44861 0.90255,0.34635 1.30026,0.17878 0.94396,-0.39772 -0.33863,-0.54791 0.0636,-1.67549 0.89381,-2.50572 1.34601,-1.34601 1.33613,-1.9773 -0.0912,-5.82849 -1.47552,-3.98117 -1.47128,-4.57845 0.0542,-7.63646 0.91024,-1.82461 1.6582,-3.81084 1.66214,-4.41384 0.0128,-1.95464 11.52521,-13.70633 13.03695,-13.30788 0.80074,0.21105 1.11244,0.193 0.69268,-0.0401 -0.41977,-0.23312 1.38023,-2.77958 4,-5.65881 L 382.5,198.3546 v -8.09137 c 0,-4.45025 0.29178,-8.38432 0.6484,-8.74237 0.94748,-0.95127 10.03513,4.95273 9.12274,5.92679 -0.42413,0.45279 0.21405,0.31109 1.41817,-0.3149 1.46425,-0.76122 2.39789,-0.80068 2.8191,-0.11914 0.99303,1.60676 2.47336,0.11205 1.77835,-1.79564 -0.58384,-1.60256 -0.49164,-1.6004 1.37242,0.032 1.09906,0.9625 2.63787,1.75689 3.41956,1.76531 1.17965,0.0127 1.16626,0.19385 -0.0787,1.06551 -1.14295,0.80021 -0.90491,0.8835 1,0.34991 1.375,-0.38516 2.78027,-1.1361 3.12283,-1.66876 0.3895,-0.60566 1.4703,-0.5149 2.8851,0.24227 1.37192,0.73424 1.83865,1.47255 1.18589,1.87597 -0.59201,0.36589 0.67789,0.66524 2.82201,0.66524 2.39069,0 4.97854,0.806 6.69128,2.08403 3.58273,2.6734 9.47252,12.33924 8.91031,14.62288 -0.23728,0.96379 0.1533,2.08879 0.86795,2.5 0.71465,0.4112 2.52453,3.67264 4.02195,7.24764 6.32097,15.09091 12.3577,23.7321 20.49268,29.33395 l 2.5,1.72153 -2.5,-0.57549 c -2.12043,-0.48811 -2.2331,-0.40819 -0.74208,0.52638 0.96686,0.60603 2.23078,0.80963 2.80872,0.45244 2.73443,-1.68997 17.05733,12.91355 15.3596,15.66054 -0.46054,0.74517 -0.30838,0.92584 0.40725,0.48356 0.62838,-0.38836 2.38081,0.44211 3.89429,1.84549 1.51348,1.40338 3.09388,2.5516 3.512,2.5516 0.98331,0 0.9918,2.70382 0.0102,3.25277 -0.4125,0.23069 -0.21622,0.29334 0.43618,0.13921 0.65239,-0.15412 2.22739,0.49399 3.5,1.44025 1.2726,0.94627 3.57471,2.35968 5.11579,3.14092 1.54109,0.78124 4.24109,2.92059 6,4.75411 1.75892,1.83352 4.66333,4.25839 6.45426,5.38861 1.79093,1.13022 3.03327,2.41571 2.76076,2.85664 -0.27251,0.44092 0.0622,0.75338 0.74377,0.69435 0.68158,-0.059 3.03924,0.42131 5.23924,1.06744 2.2,0.64612 5.125,1.40471 6.5,1.68575 1.43696,0.2937 7.17737,5.21516 13.5,11.57404 8.6041,8.65342 10.68369,11.26027 9.54775,11.9685 -0.79874,0.498 -1.85614,0.65583 -2.34977,0.35075 -0.49364,-0.30508 -0.39836,0.37799 0.21172,1.51793 0.75277,1.40657 1.96584,2.00773 3.77483,1.87068 2.32459,-0.17611 3.09577,0.60964 6.02811,6.14198 2.20449,4.15914 3.15481,7.08647 2.75943,8.5 -0.41096,1.4692 -0.31174,1.73723 0.31144,0.84135 0.66648,-0.95813 1.50932,-0.009 3.10755,3.5 1.20617,2.6481 3.28806,6.83972 4.62642,9.31472 1.33837,2.475 2.2246,5.08587 1.96941,5.80194 -0.25519,0.71606 -0.0684,1.05743 0.41518,0.75858 1.23021,-0.76031 4.33448,4.24772 3.48498,5.62223 -0.38503,0.62299 -0.25173,0.85165 0.2983,0.51171 1.43154,-0.88473 8.44881,12.72785 7.71974,14.97526 -0.39697,1.22369 -0.29854,1.42276 0.297,0.60065 1.33789,-1.84686 4.59443,4.15114 3.796,6.99158 -0.41322,1.47004 -0.32062,1.79553 0.26986,0.94851 0.95272,-1.36666 5.41149,5.14816 10.61258,15.5063 3.21832,6.40938 3.22296,6.63176 0.12615,6.03977 l -2.49332,-0.47663 2.86046,5.11005 c 2.02821,3.62326 3.34605,8.16506 4.52939,15.61005 0.91791,5.775 2.25318,13.2 2.96727,16.5 1.1432,5.28305 1.11034,6.13877 -0.27504,7.16132 -0.86536,0.63873 -1.87388,0.97561 -2.24115,0.74862 -0.36728,-0.22698 -0.50833,0.37542 -0.31346,1.33868 0.19488,0.96326 1.0995,6.47631 2.01027,12.25123 0.91077,5.77491 2.31702,11.77822 3.125,13.34068 1.5872,3.06931 1.01558,10.11396 -0.91762,11.30874 -0.6753,0.41736 -0.77027,0.17882 -0.25848,-0.64927 0.53934,-0.87268 0.41874,-1.06781 -0.3618,-0.58541 -0.64395,0.39798 -0.91767,1.13321 -0.60827,1.63384 0.69428,1.12337 -1.36373,5.16987 -2.3301,4.58149 -0.38491,-0.23435 -0.80891,1.42075 -0.94223,3.67799 -0.13685,2.31692 -0.86982,4.4552 -1.6832,4.91039 -1.91181,1.0699 -6.5744,11.02591 -6.5744,14.03827 0,1.30924 0.69539,4.72208 1.54532,7.58409 0.84993,2.86201 1.2304,5.71322 0.84549,6.33601 -0.39248,0.63505 -0.25702,0.85868 0.30845,0.5092 1.11127,-0.6868 3.52879,3.75275 2.56718,4.71436 -1.22818,1.22817 -2.18339,0.54107 -1.59907,-1.15023 0.33252,-0.9625 -0.90179,0.46718 -2.74291,3.17708 -3.09397,4.55389 -3.37873,5.6408 -3.75965,14.35026 l -0.41214,9.42319 -3.12633,-0.59887 c -1.80795,-0.34632 -2.58287,-0.24819 -1.83759,0.23271 0.97108,0.62659 1.03271,1.50503 0.25,3.5637 -1.83313,4.82151 -1.12903,9.20645 2.87739,17.91955 2.15388,4.68422 3.61638,8.85117 3.25,9.2599 -0.36638,0.40872 -0.1313,0.43652 0.5224,0.0618 0.6537,-0.37474 1.5537,-0.0354 2,0.75399 0.4463,0.78944 2.65408,3.39791 4.90617,5.79661 6.56885,6.99646 7.93263,11.1348 5.05449,15.3376 -0.74295,1.08488 -1.66516,3.26437 -2.04938,4.84331 -0.38421,1.57894 -1.35134,3.52358 -2.14919,4.32143 -0.79785,0.79784 -1.44374,1.98098 -1.43532,2.6292 0.009,0.69174 0.41739,0.55897 0.98871,-0.32143 0.69279,-1.06759 0.96008,0.0855 0.92723,4 -0.0254,3.025 0.11103,20.8 0.30315,39.5 0.34092,33.18251 0.40637,34.13224 2.72239,39.5 2.42381,5.61756 9.68863,15.05327 15.85055,20.58703 3.09264,2.77737 3.31933,3.32909 2.25989,5.5 -1.1164,2.28765 -1.09668,2.312 0.37976,0.46889 1.51782,-1.89476 1.65186,-1.85671 5.28439,1.5 2.04989,1.89425 3.99388,3.79112 4.31997,4.21528 1.17611,1.52981 11.55195,5.03621 16.19865,5.47415 4.49242,0.4234 5.21374,1.02494 4.82101,4.02047 -0.0913,0.69621 0.21798,1.14621 0.68722,1 0.46925,-0.1462 2.06561,1.03739 3.54747,2.6302 2.104,2.26153 2.6943,2.51714 2.6943,1.16667 0,-0.95115 0.5625,-1.54328 1.25,-1.31586 1.9693,0.65144 4.50339,11.7645 3.38237,14.83315 -1.12507,3.07976 1.85933,9.79792 7.04248,15.85326 1.79046,2.09175 2.93358,4.12499 2.54027,4.51831 -0.39332,0.39331 -0.26512,0.62433 0.28488,0.51336 2.37613,-0.47939 2.74547,0.14468 0.94113,1.59026 -1.86785,1.49645 -1.85706,1.51447 0.28584,0.47714 3.2347,-1.56584 5.77499,0.41033 8.83489,6.87292 2.43338,5.13938 2.72095,11.00562 0.47135,9.61529 -1.25898,-0.77809 -0.26093,4.13845 1.55164,7.64357 0.82329,1.59205 1.23012,3.32628 0.90408,3.85382 -0.32604,0.52755 0.0463,0.71392 0.82749,0.41416 1.81875,-0.69792 7.96656,8.37783 7.32831,10.81847 -0.25202,0.96372 -0.0886,1.5238 0.36312,1.24461 1.21001,-0.74783 5.25691,6.26745 4.40793,7.64112 -0.4577,0.74057 -0.29162,0.90503 0.45067,0.44627 1.41055,-0.87177 4.54896,5.9363 3.51085,7.61599 -0.41591,0.67296 -0.23071,0.8289 0.47006,0.3958 0.7113,-0.4396 1.56457,0.35893 2.2169,2.0747 0.74801,1.9674 0.74746,2.89373 -0.002,3.14351 C 696.47808,853.00731 696,853.76667 696,854.5 c 0,0.73333 -0.48612,1.49537 -1.08028,1.69343 -2.50261,0.8342 3.93623,10.78697 7.00459,10.82726 1.52348,0.02 5.66531,7.79301 9.58023,17.97931 0.95122,2.475 2.86109,6.87357 4.24415,9.7746 1.38306,2.90104 2.81376,8.16433 3.17932,11.69622 0.40989,3.96015 1.34228,7.17036 2.43247,8.37501 1.33948,1.48011 1.60366,2.82842 1.09032,5.56475 -0.42889,2.28615 -0.23736,4.14167 0.52194,5.05658 0.65969,0.79488 0.86617,1.98447 0.45884,2.64354 -0.46851,0.75808 -0.31645,0.93618 0.41391,0.48479 1.54251,-0.95332 1.41102,0.48274 -0.24386,2.66316 -0.76608,1.00937 -1.19059,3.45919 -0.99637,5.75 0.31656,3.73375 0.16781,3.99135 -2.30469,3.99135 -1.4537,0 -3.48123,0.75851 -4.50563,1.68558 -2.09478,1.89575 -14.43232,3.15474 -13.32282,1.35953 0.3736,-0.60449 -0.002,-0.77884 -0.92018,-0.42667 -0.85357,0.32755 -1.55194,0.12772 -1.55194,-0.44406 0,-0.57178 -0.9,-1.32525 -2,-1.67438 -1.1,-0.34913 -2,-1.08101 -2,-1.6264 0,-0.5454 0.35798,-0.77039 0.79552,-0.49997 1.6081,0.99386 0.6457,-4.22939 -1.14348,-6.20603 -1.01638,-1.12287 -1.55551,-2.51477 -1.19806,-3.09313 0.38662,-0.62557 0.0523,-0.82223 -0.82535,-0.48546 -0.8791,0.33735 -1.93061,-0.28474 -2.60211,-1.53946 -0.61978,-1.15806 -1.55429,-1.84141 -2.07669,-1.51854 -1.34931,0.83391 -1.18131,-1.89953 0.20174,-3.28258 0.86876,-0.86876 0.56375,-1.76231 -1.24196,-3.63844 -1.31644,-1.36778 -2.44111,-3.07708 -2.49925,-3.79843 -0.0581,-0.72136 -0.17427,-2.214 -0.25805,-3.31699 -0.0838,-1.10298 -1.96801,-3.93306 -4.18719,-6.28905 -2.21918,-2.356 -3.77137,-4.70999 -3.44931,-5.2311 0.35962,-0.58188 -0.30218,-0.62164 -1.71512,-0.10306 -1.56128,0.57304 -2.38808,1.77391 -2.57259,3.73653 -0.21818,2.32061 0.37464,3.30679 3,4.99063 l 3.2719,2.09851 v 8.90149 8.90148 l -3.25,0.31336 c -1.82556,0.17601 -3.25,-0.1527 -3.25,-0.75 C 673,928.47851 672.56412,928 672.03138,928 c -0.53273,0 -0.73393,0.61156 -0.44711,1.35902 0.42135,1.098 -0.45851,1.20409 -4.58124,0.55238 -3.77657,-0.597 -5.8438,-1.59994 -7.9541,-3.85902 -1.56824,-1.67881 -3.45831,-3.05927 -4.20014,-3.06769 -1.02933,-0.0117 -0.99352,-0.24182 0.15121,-0.97166 1.961,-1.25026 -5.75362,-0.11817 -8.37717,1.22932 -1.33769,0.68705 -2.15513,0.57523 -2.84434,-0.3891 -0.74678,-1.0449 -0.84527,-0.97115 -0.43226,0.32364 0.29419,0.92228 -0.13498,2.23282 -0.9537,2.9123 -1.19506,0.99181 -2.1902,0.90085 -5.04664,-0.46129 -2.67174,-1.27406 -3.89436,-1.4176 -4.90816,-0.57622 -0.74257,0.61628 -1.88936,0.78723 -2.54843,0.3799 -0.75495,-0.46658 -0.93623,-0.31654 -0.48996,0.40555 0.6339,1.02567 -4.78074,9.16571 -6.64934,9.9962 -0.4125,0.18334 -0.75,0.88665 -0.75,1.56291 0,0.67627 -1.32023,2.49444 -2.93384,4.04037 -2.465,2.36162 -3.48226,2.70791 -6.36575,2.16696 C 608.4302,942.80248 606,943.67165 606,946 c 0,0.98231 -0.62216,2.02477 -1.38258,2.31657 -0.76042,0.2918 -1.77292,2.088 -2.25,3.99155 l -0.86742,3.461 z M 598,948.55902 c 0,-0.24254 -0.45,-0.7191 -1,-1.05902 -0.55,-0.33992 -1,-0.14148 -1,0.44098 0,0.58246 0.45,1.05902 1,1.05902 0.55,0 1,-0.19844 1,-0.44098 z m 116,-6.67705 c 0,-0.55 -0.45,-0.72189 -1,-0.38197 -0.55,0.33992 -1,1.06803 -1,1.61803 0,0.55 0.45,0.72189 1,0.38197 0.55,-0.33992 1,-1.06803 1,-1.61803 z M 716.5,940 c 0.33992,-0.55 0.14148,-1 -0.44098,-1 -0.58246,0 -1.05902,0.45 -1.05902,1 0,0.55 0.19844,1 0.44098,1 0.24254,0 0.7191,-0.45 1.05902,-1 z m -97.0841,-1.64144 c 0.52667,-1.37248 0.38034,-1.43434 -0.89301,-0.37756 -1.73524,1.44013 -1.91584,2.019 -0.62988,2.019 0.49116,0 1.17646,-0.73865 1.52289,-1.64144 z M 702,938.10699 c 0,-0.49116 -0.73865,-1.17646 -1.64144,-1.52289 -1.37248,-0.52667 -1.43434,-0.38034 -0.37756,0.89301 1.44013,1.73524 2.019,1.91584 2.019,0.62988 z M 587.68311,925.8125 c -0.31922,-0.79773 -0.55618,-0.56078 -0.60416,0.60417 -0.0434,1.05416 0.19293,1.64479 0.52522,1.3125 0.33229,-0.33229 0.36781,-1.1948 0.0789,-1.91667 z M 675,910.55902 c 0,-0.24254 -0.45,-0.7191 -1,-1.05902 -0.55,-0.33992 -1,-0.14148 -1,0.44098 0,0.58246 0.45,1.05902 1,1.05902 0.55,0 1,-0.19844 1,-0.44098 z m 42.68311,-1.74652 c -0.31922,-0.79773 -0.55618,-0.56078 -0.60416,0.60417 -0.0434,1.05416 0.19293,1.64479 0.52522,1.3125 0.33229,-0.33229 0.36781,-1.1948 0.0789,-1.91667 z M 439.5,826 c -0.33992,-0.55 -1.15398,-0.99311 -1.80902,-0.98469 -0.71561,0.009 -0.59227,0.40223 0.30902,0.98469 1.92112,1.24153 2.2673,1.24153 1.5,0 z m -73.89726,-44.82583 c -1.50588,-1.50588 -1.53363,-1.4251 -0.36607,1.06552 0.69483,1.48221 1.42806,2.21545 1.6294,1.62941 0.20134,-0.58604 -0.36716,-1.79876 -1.26333,-2.69493 z m -17.91963,-6.36167 c -0.31922,-0.79773 -0.55618,-0.56078 -0.60416,0.60417 -0.0434,1.05416 0.19293,1.64479 0.52522,1.3125 0.33229,-0.33229 0.36781,-1.1948 0.0789,-1.91667 z m 3,0 c -0.31922,-0.79773 -0.55618,-0.56078 -0.60416,0.60417 -0.0434,1.05416 0.19293,1.64479 0.52522,1.3125 0.33229,-0.33229 0.36781,-1.1948 0.0789,-1.91667 z m 300.12376,-9.33896 c -0.30789,-0.30789 -0.86705,0.24711 -1.24258,1.23333 -0.54268,1.4252 -0.42782,1.54006 0.5598,0.5598 0.68342,-0.67834 0.99067,-1.48524 0.68278,-1.79313 z m 2.57469,0.97452 c 0.34149,-0.88992 0.17385,-1.29132 -0.39301,-0.94098 -0.5437,0.33602 -0.98855,1.0344 -0.98855,1.55194 0,1.43843 0.71677,1.12146 1.38156,-0.61096 z M 653,762 c 0,-0.55 -0.19844,-1 -0.44098,-1 -0.24254,0 -0.7191,0.45 -1.05902,1 -0.33992,0.55 -0.14148,1 0.44098,1 C 652.52344,763 653,762.55 653,762 Z M 324.72917,749.39583 c -0.33229,-0.33229 -1.1948,-0.36781 -1.91667,-0.0789 -0.79773,0.31922 -0.56078,0.55618 0.60417,0.60416 1.05416,0.0434 1.64479,-0.19293 1.3125,-0.52522 z m 315,-1 c -0.33229,-0.33229 -1.1948,-0.36781 -1.91667,-0.0789 -0.79773,0.31922 -0.56078,0.55618 0.60417,0.60416 1.05416,0.0434 1.64479,-0.19293 1.3125,-0.52522 z M 284.602,730.84216 c -0.8811,-1.25794 -1.602,-1.95594 -1.602,-1.5511 0,1.11494 2.36861,4.67367 2.81414,4.22813 0.21442,-0.21442 -0.33104,-1.41908 -1.21214,-2.67703 z m 2.52007,-0.51716 c -1.17884,-2.02721 -1.46351,-1.37835 -0.49853,1.13634 0.34294,0.8937 0.83419,1.41426 1.09166,1.15679 0.25747,-0.25747 -0.009,-1.28938 -0.59313,-2.29313 z M 604,725.62244 c 0,-0.20765 -0.7875,-0.99515 -1.75,-1.75 -1.58606,-1.24387 -1.62143,-1.2085 -0.37756,0.37756 1.30637,1.66575 2.12756,2.19548 2.12756,1.37244 z M 270.78776,684.86329 c -0.24965,-0.74895 -0.70294,-0.29565 -1.05655,1.05655 -0.43497,1.66335 -0.30483,2.05378 0.43724,1.31171 0.5811,-0.5811 0.85979,-1.64682 0.61931,-2.36826 z m -1.10465,-8.05079 c -0.31922,-0.79773 -0.55618,-0.56078 -0.60416,0.60417 -0.0434,1.05416 0.19293,1.64479 0.52522,1.3125 0.33229,-0.33229 0.36781,-1.1948 0.0789,-1.91667 z M 595,610.44098 c 0,-0.85746 -0.45734,-1.27636 -1.01631,-0.9309 -0.55897,0.34546 -0.75742,1.04702 -0.44098,1.55902 0.85723,1.38704 1.45729,1.12841 1.45729,-0.62812 z m -16.19313,-22.96744 c -0.30789,-0.30789 -0.86705,0.24711 -1.24258,1.23333 -0.54268,1.4252 -0.42782,1.54006 0.5598,0.5598 0.68342,-0.67834 0.99067,-1.48524 0.68278,-1.79313 z M 216,588.65499 c 0,-0.18976 -1.0125,-1.20226 -2.25,-2.25 L 211.5,584.5 l 1.90499,2.25 C 215.19521,588.86444 216,589.45524 216,588.65499 Z M 581.93639,538.5 c 0,-0.55 -0.66069,-0.12649 -1.46819,0.94113 -0.80751,1.06762 -1.4682,2.39113 -1.4682,2.94113 0,0.55 0.66069,0.12649 1.4682,-0.94113 0.8075,-1.06762 1.46819,-2.39113 1.46819,-2.94113 z M 167.38156,505.44806 c 0.34149,-0.88992 0.17385,-1.29132 -0.39301,-0.94098 -0.5437,0.33602 -0.98855,1.0344 -0.98855,1.55194 0,1.43843 0.71677,1.12146 1.38156,-0.61096 z m -17.95299,-15.87663 c -0.36782,-1.46551 -0.86162,-2.47171 -1.09733,-2.236 -0.23572,0.23572 -0.12763,1.62763 0.24019,3.09314 0.36782,1.46551 0.86162,2.47171 1.09733,2.236 0.23572,-0.23572 0.12763,-1.62763 -0.24019,-3.09314 z m 444.25454,-3.75893 c -0.31922,-0.79773 -0.55618,-0.56078 -0.60416,0.60417 -0.0434,1.05416 0.19293,1.64479 0.52522,1.3125 0.33229,-0.33229 0.36781,-1.1948 0.0789,-1.91667 z m -0.0208,-19.0625 c -0.27741,-0.6875 -0.50439,-0.125 -0.50439,1.25 0,1.375 0.22698,1.9375 0.50439,1.25 0.27741,-0.6875 0.27741,-1.8125 0,-2.5 z m -434.3172,-20.29313 c -0.32569,-0.84872 -0.80663,-1.32866 -1.06875,-1.06653 -0.26213,0.26213 -0.17998,0.95654 0.18255,1.54313 0.98605,1.59546 1.56238,1.28551 0.8862,-0.4766 z M 590.68311,421.8125 c -0.31922,-0.79773 -0.55618,-0.56078 -0.60416,0.60417 -0.0434,1.05416 0.19293,1.64479 0.52522,1.3125 0.33229,-0.33229 0.36781,-1.1948 0.0789,-1.91667 z M 588,412.55902 c 0,-0.24254 -0.45,-0.7191 -1,-1.05902 -0.55,-0.33992 -1,-0.14148 -1,0.44098 0,0.58246 0.45,1.05902 1,1.05902 0.55,0 1,-0.19844 1,-0.44098 z m -2.58571,-4.54473 c -0.64762,-0.64762 -0.98572,-0.30953 -0.98572,0.98571 0,1.29524 0.3381,1.63333 0.98572,0.98571 0.64761,-0.64761 0.64761,-1.32381 0,-1.97142 z m -5.01943,-17.28609 c 0.39097,0.39096 0.40647,-0.0824 0.0344,-1.05181 -0.37201,-0.96945 -0.74813,-1.63074 -0.83582,-1.46952 -0.0877,0.16122 -0.81959,1.19313 -1.62646,2.29313 -1.32195,1.80222 -1.3096,1.87724 0.12498,0.75868 0.8756,-0.68273 1.91189,-0.92145 2.30285,-0.53048 z m -2.0133,-3.28014 c 0.34149,-0.88992 0.17385,-1.29132 -0.39301,-0.94098 -0.5437,0.33602 -0.98855,1.0344 -0.98855,1.55194 0,1.43843 0.71677,1.12146 1.38156,-0.61096 z M 576,381.62244 c 0,-0.20765 -0.7875,-0.99515 -1.75,-1.75 -1.58606,-1.24387 -1.62143,-1.2085 -0.37756,0.37756 1.30637,1.66575 2.12756,2.19548 2.12756,1.37244 z M 569.66228,375.75 c -0.27741,-0.6875 -0.50439,-0.125 -0.50439,1.25 0,1.375 0.22698,1.9375 0.50439,1.25 0.27741,-0.6875 0.27741,-1.8125 0,-2.5 z m -31.53819,-63.01667 c -0.98762,-0.98026 -1.10248,-0.8654 -0.5598,0.5598 0.37553,0.98622 0.93469,1.54122 1.24258,1.23333 0.30789,-0.30789 6.4e-4,-1.11479 -0.68278,-1.79313 z m -7.82676,-7.65669 c -0.43853,-0.32995 -1.08904,-0.96139 -1.44559,-1.4032 -0.35654,-0.4418 -0.58154,0.31238 -0.5,1.67596 0.11428,1.91093 0.44565,2.23258 1.44559,1.4032 0.71354,-0.59183 0.93854,-1.34601 0.5,-1.67596 z m -21.46348,-11.95279 c 1.06752,-0.6767 1.00723,-0.97085 -0.30194,-1.47323 -0.89968,-0.34524 -1.38461,-0.2213 -1.07762,0.27542 0.307,0.49673 -0.007,1.13105 -0.69806,1.4096 -0.69093,0.27856 -0.80623,0.5351 -0.25623,0.5701 0.55,0.035 1.60023,-0.31685 2.33385,-0.78189 z m 4.89532,0.27198 c -0.33229,-0.33229 -1.1948,-0.36781 -1.91667,-0.0789 -0.79773,0.31922 -0.56078,0.55618 0.60417,0.60416 1.05416,0.0434 1.64479,-0.19293 1.3125,-0.52522 z m -288.60508,-21.6625 c -0.98762,-0.98026 -1.10248,-0.8654 -0.5598,0.5598 0.37553,0.98622 0.93469,1.54122 1.24258,1.23333 0.30789,-0.30789 6.4e-4,-1.11479 -0.68278,-1.79313 z m 113.60508,-9.3375 c -0.33229,-0.33229 -1.1948,-0.36781 -1.91667,-0.0789 -0.79773,0.31922 -0.56078,0.55618 0.60417,0.60416 1.05416,0.0434 1.64479,-0.19293 1.3125,-0.52522 z m 131.06716,-2.35035 c -0.67134,-1.07499 -1.41428,-1.76086 -1.65098,-1.52417 -0.42859,0.4286 1.75074,3.47869 2.48557,3.47869 0.21231,0 -0.16325,-0.87953 -0.83459,-1.95452 z M 467,256.62244 c 0,-0.20765 -0.7875,-0.99515 -1.75,-1.75 -1.58606,-1.24387 -1.62143,-1.2085 -0.37756,0.37756 1.30637,1.66575 2.12756,2.19548 2.12756,1.37244 z m -203.75,-4.28472 c -0.6875,-0.27741 -1.8125,-0.27741 -2.5,0 -0.6875,0.27741 -0.125,0.50439 1.25,0.50439 1.375,0 1.9375,-0.22698 1.25,-0.50439 z M 114.68311,249.8125 c -0.31922,-0.79773 -0.55618,-0.56078 -0.60416,0.60417 -0.0434,1.05416 0.19292,1.64479 0.52522,1.3125 0.33229,-0.3323 0.36781,-1.1948 0.0789,-1.91667 z m 96,-9 c -0.31922,-0.79773 -0.55618,-0.56078 -0.60416,0.60417 -0.0434,1.05416 0.19292,1.64479 0.52522,1.3125 0.33229,-0.3323 0.36781,-1.1948 0.0789,-1.91667 z m 158.55681,-25.16422 c 0.63721,0.39382 0.77678,0.18776 0.34549,-0.51008 -0.85086,-1.37672 -2.62054,-0.55006 -2.50646,1.17082 0.0565,0.85244 0.22291,0.83389 0.58541,-0.0652 0.27855,-0.69093 0.98755,-0.9589 1.57556,-0.59549 z M 374,215 c -0.825,-0.53316 -1.95,-0.96937 -2.5,-0.96937 -0.55,0 -0.325,0.43621 0.5,0.96937 0.825,0.53316 1.95,0.96937 2.5,0.96937 0.55,0 0.325,-0.43621 -0.5,-0.96937 z m 43.5,-23 c 0.33992,-0.55 0.14148,-1 -0.44098,-1 -0.58246,0 -1.05902,0.45 -1.05902,1 0,0.55 0.19844,1 0.44098,1 0.24254,0 0.7191,-0.45 1.05902,-1 z M 95.124088,182.73333 c -0.987616,-0.98026 -1.10248,-0.8654 -0.559795,0.5598 0.375531,0.98622 0.934692,1.54122 1.242579,1.23333 0.307887,-0.30789 6.34e-4,-1.11479 -0.682784,-1.79313 z m 131.682782,-0.25979 c -0.30789,-0.30789 -0.86705,0.24711 -1.24258,1.23333 -0.54268,1.4252 -0.42782,1.54006 0.5598,0.5598 0.68342,-0.67834 0.99067,-1.48524 0.68278,-1.79313 z M 215.5,183 c -0.33992,-0.55 -1.15398,-0.99311 -1.80902,-0.98469 -0.71561,0.009 -0.59227,0.40223 0.30902,0.98469 1.92112,1.24153 2.2673,1.24153 1.5,0 z m -7.95888,-4.06653 c 1.02606,-1.66021 0.10511,-1.89043 -1.33055,-0.33261 -0.70918,0.76953 -0.84824,1.39914 -0.30901,1.39914 0.53922,0 1.27702,-0.47994 1.63956,-1.06653 z M 167.5,150 c -0.33992,-0.55 -1.15398,-0.99311 -1.80902,-0.98469 -0.71561,0.009 -0.59227,0.40223 0.30902,0.98469 1.92112,1.24153 2.2673,1.24153 1.5,0 z m -2.5,-2.57037 c 0,-0.275 -0.9,-0.0183 -2,0.57037 -1.1,0.5887 -2,1.29537 -2,1.57037 0,0.275 0.9,0.0183 2,-0.57037 1.1,-0.5887 2,-1.29537 2,-1.57037 z M 131.5,143 c -0.33992,-0.55 -1.15398,-0.99311 -1.80902,-0.98469 -0.71561,0.009 -0.59227,0.40223 0.30902,0.98469 1.92112,1.24153 2.2673,1.24153 1.5,0 z M 110,134.45203 c 0,-1.18139 -1.89074,-1.17914 -2.34429,0.003 -0.36945,0.96277 -0.0714,1.25818 0.89522,0.88726 C 109.34792,135.03625 110,134.63573 110,134.45203 Z m -8,-7.89301 c 0,-0.24254 -0.45,-0.7191 -1,-1.05902 -0.55,-0.33992 -1,-0.14148 -1,0.44098 0,0.58246 0.45,1.05902 1,1.05902 0.55,0 1,-0.19844 1,-0.44098 z m 145.44615,572.35385 c -0.36954,-0.59793 -0.26645,-1.49257 0.22907,-1.98809 0.53462,-0.53462 0.96186,-0.0926 1.05072,1.08713 0.16721,2.21977 -0.27313,2.52976 -1.27979,0.90096 z m 5.0503,-3.16287 c 0.40134,-1.2375 0.72643,-3.2625 0.72241,-4.5 -0.004,-1.2375 0.42167,-2.25 0.94594,-2.25 0.52428,0 0.72122,-0.3754 0.43766,-0.83422 C 253.93104,687.0794 257.92714,679 259.13589,679 c 2.60674,0 2.18776,5.97081 -0.66662,9.5 -0.88967,1.1 -1.28707,1.325 -0.8831,0.5 0.42456,-0.86707 0.35575,-1.15375 -0.16309,-0.67942 -0.49366,0.45132 -0.94113,1.35132 -0.99437,2 -0.0532,0.64868 -0.72014,2.64192 -1.48199,4.42942 -1.55814,3.65577 -3.57907,4.48055 -2.45027,1 z m -6.68513,-10.27202 C 244.76728,684.43395 248.26865,681 250.37723,681 c 1.86172,0 1.86701,0.0726 0.14411,1.97642 -0.98375,1.08703 -2.14006,1.75923 -2.56958,1.49377 -0.42952,-0.26546 -0.94125,-0.002 -1.13718,0.58608 -0.19594,0.5878 -0.6474,0.77757 -1.00326,0.42171 z M 539,318.04484 c 0,-1.0768 2.62466,-2.08684 3.40223,-1.30927 1.1147,1.1147 0.60469,1.8383 -1.40223,1.98948 -1.1,0.0829 -2,-0.22324 -2,-0.68021 z"
        fill="#1c1c1e" stroke="#2e2e30" stroke-width="6.1" stroke-linejoin="round"/>
  <path d="m 596.87087,951.13456 c -5.58771,-5.59427 -6.85842,-7.99612 -10.38774,-19.63456 -3.30954,-10.91369 -5.4071,-15.18217 -9.14155,-18.60278 -4.8514,-4.4437 -12.0974,-8.89968 -15.54437,-9.55914 -4.707,-0.90051 -13.35736,-5.40829 -22.97958,-11.97486 -10.34944,-7.06285 -15.78122,-9.51055 -22.81763,-10.28219 -4.39078,-0.48151 -5.47235,-0.95169 -5.3629,-2.33133 0.0754,-0.9505 -0.29046,-1.46394 -0.81302,-1.14098 C 508.02787,878.71884 505,874.78738 505,871.34501 505,869.23797 504.51058,868 503.67758,868 c -0.72733,0 -3.87105,-1.3804 -6.98604,-3.06755 -4.86312,-2.63398 -6.61964,-3.04727 -12.42758,-2.92412 -11.18892,0.23725 -11.04228,0.28038 -14.28999,-4.20296 -1.67122,-2.30705 -2.81523,-4.77665 -2.54226,-5.488 0.27297,-0.71136 -0.05,-1.18628 -0.7177,-1.05537 -0.6677,0.1309 -1.15232,-0.54466 -1.07691,-1.50124 0.0754,-0.95658 -0.20184,-1.52977 -0.61608,-1.27375 -0.41424,0.25601 -2.86071,-1.52529 -5.43661,-3.95845 -2.57589,-2.43316 -6.43915,-5.87605 -8.58502,-7.65087 -2.14587,-1.77481 -3.62906,-3.66789 -3.29597,-4.20682 0.33308,-0.53894 0.16547,-0.70787 -0.37247,-0.37541 -0.53794,0.33247 -3.00928,-0.8355 -5.49187,-2.59549 -2.48259,-1.75998 -8.16225,-4.52047 -12.62147,-6.1344 -4.45922,-1.61394 -7.83788,-3.37097 -7.50813,-3.90451 0.34141,-0.55241 0.0765,-0.64681 -0.61533,-0.21925 -1.33342,0.8241 -3.85246,-0.0535 -15.09415,-5.25866 -4.125,-1.90996 -9.075,-3.77289 -11,-4.13983 -2.0529,-0.39133 -3.38639,-1.18913 -3.22522,-1.92958 0.15112,-0.69432 -0.12315,-1.01647 -0.60949,-0.71589 -1.18128,0.73007 -6.40372,-5.20305 -5.65136,-6.42039 0.32447,-0.525 -0.0629,-0.70403 -0.86084,-0.39783 -0.79793,0.30619 -1.79084,0.007 -2.20645,-0.66596 -0.41561,-0.67248 -0.34863,-0.97134 0.14885,-0.66414 0.49748,0.3072 0.97529,-0.61778 1.0618,-2.05552 0.1297,-2.15555 -0.0106,-2.31412 -0.79969,-0.90404 -1.19475,2.1349 -3.28585,2.26841 -2.47604,0.15809 0.34379,-0.89592 0.17468,-1.29184 -0.40008,-0.93662 -0.54758,0.33843 -1.29599,-0.2007 -1.66313,-1.19806 -0.36714,-0.99736 -1.27343,-2.17854 -2.01397,-2.62484 -0.74055,-0.4463 -1.04245,-1.30333 -0.6709,-1.90451 0.37993,-0.61475 0.2179,-0.81021 -0.37029,-0.44669 -1.57494,0.97337 -10.08057,-3.12759 -11.3304,-5.46292 C 362.51523,781.22569 357.11393,779 352.10355,779 c -4.76048,0 -6.18883,-1.27624 -8.55703,-7.64576 -0.99264,-2.66983 -3.07768,-6.20604 -4.63341,-7.85825 -1.96633,-2.08827 -2.91769,-4.24737 -3.12085,-7.08276 -0.16075,-2.24331 -0.74226,-4.16263 -1.29226,-4.26516 -0.55,-0.10252 -3.925,-0.57065 -7.5,-1.04028 -3.575,-0.46963 -9.875,-2.23741 -14,-3.92839 -4.125,-1.69099 -11.55,-4.64317 -16.5,-6.56041 -4.95,-1.91724 -8.8875,-3.96584 -8.75,-4.55244 0.1375,-0.5866 -0.25751,-0.95405 -0.8778,-0.81655 C 285.80336,735.48693 275,720.68322 275,718.98167 c 0,-0.44207 -3.78737,-2.00973 -8.41637,-3.4837 -7.53378,-2.39891 -8.53866,-3.01121 -9.58258,-5.83896 -0.64142,-1.73745 -1.51071,-3.82625 -1.93174,-4.64176 -1.15714,-2.24127 5.15174,-13.6167 6.93921,-12.51198 0.43005,0.26578 1.05826,-0.2369 1.39601,-1.11708 0.42341,-1.10337 1.34145,-1.41778 2.95633,-1.01247 3.40851,0.85548 3.73412,-0.10042 1.38844,-4.07606 -1.67241,-2.83452 -1.85661,-3.89818 -0.93158,-5.37939 0.94435,-1.51215 0.8842,-1.74312 -0.33235,-1.27628 -1.03086,0.39558 -1.48537,-0.0899 -1.48537,-1.58666 0,-2.09068 -2.5938,-8.04383 -3.94631,-9.05733 -1.25664,-0.94167 -2.89679,-6.49976 -3.54111,-12 -0.35436,-3.025 -1.51098,-7.46141 -2.57028,-9.85868 -1.0593,-2.39728 -1.63251,-4.87228 -1.27382,-5.5 0.35869,-0.62773 0.27372,-0.79752 -0.18882,-0.37732 C 252.1896,642.43596 247,636.91914 247,634.37578 c 0,-2.00218 -0.37606,-2.18901 -3.41389,-1.69604 -3.05966,0.49651 -3.5827,0.22754 -5.04086,-2.59224 -0.89484,-1.73043 -1.31406,-3.65255 -0.93161,-4.27138 0.40355,-0.65295 0.24835,-0.84886 -0.36981,-0.46681 -0.58586,0.36208 -2.45539,-1.23205 -4.15451,-3.5425 -3.17339,-4.31513 -3.97403,-6.47162 -1.93481,-5.21132 0.72104,0.44563 0.88282,0.27393 0.4309,-0.45729 -0.39798,-0.64395 -1.09152,-0.94344 -1.5412,-0.66552 -1.18049,0.72958 -2.49846,-1.14901 -6.53182,-9.31018 -1.96904,-3.98419 -3.27031,-7.74517 -2.89172,-8.35775 0.40116,-0.64908 0.2367,-0.83464 -0.39417,-0.44474 -1.09467,0.67655 -2.86519,-2.99865 -2.34129,-4.86001 0.1548,-0.55 -0.0234,-0.69512 -0.39606,-0.32248 -0.81287,0.81287 -7.10781,-6.15689 -6.71437,-7.43415 0.15112,-0.49062 -0.18259,-0.60936 -0.7416,-0.26388 C 207.74113,585.89606 193.5,573.11017 193.5,569.63577 c 0,-0.51981 -0.68713,-1.04596 -1.52697,-1.16922 -0.83983,-0.12326 -3.26512,-1.40366 -5.38954,-2.84533 C 184.45907,564.17955 182.39168,563 181.98928,563 c -0.40239,0 -1.03009,-2.25 -1.39489,-5 l -0.66328,-5 h -4.81254 c -5.36322,0 -8.37394,-1.91127 -10.08022,-6.39914 -1.47282,-3.8738 -1.28667,-11.879 0.32756,-14.08659 1.22205,-1.67126 1.70127,-1.72908 4.5502,-0.54902 2.62853,1.08877 3.61186,1.09015 5.63409,0.008 3.07111,-1.6436 3.14864,-2.97313 0.17337,-2.97313 -2.05187,0 -2.23888,-0.39367 -1.89583,-3.99087 0.26657,-2.79524 -0.25326,-5.06516 -1.73515,-7.57677 -1.16365,-1.97224 -1.816,-4.07088 -1.44965,-4.66364 0.36988,-0.59848 0.20307,-0.79158 -0.37512,-0.43424 -1.41303,0.8733 -3.62422,-1.9488 -2.6994,-3.44518 0.43044,-0.69648 0.31798,-0.93712 -0.26855,-0.57463 -0.55503,0.34303 -2.053,-0.48744 -3.32882,-1.84549 C 162.59091,505.00009 160.53325,504 158.89079,504 c -3.62148,0 -7.84694,-1.64458 -8.31174,-3.23499 -0.20334,-0.69576 -1.12379,-3.96501 -2.04544,-7.26501 -0.92166,-3.3 -2.38923,-7.69222 -3.26127,-9.76048 -1.75138,-4.15381 -1.19805,-7.08492 3.25443,-17.23952 1.2058,-2.75 2.50515,-7.11767 2.88746,-9.70594 0.76467,-5.17695 2.81331,-9.90809 5.11885,-11.82151 2.25163,-1.86869 -0.0304,-3.93055 -4.17767,-3.77463 -1.97216,0.0741 -4.13536,-0.5493 -5.03803,-1.45197 -1.44252,-1.44252 -1.39267,-1.88806 0.56589,-5.05707 1.18128,-1.91135 3.71579,-4.67117 5.63225,-6.13292 1.91647,-1.46176 3.48448,-3.25877 3.48448,-3.99335 0,-1.65082 -5.57136,-2.59125 -6.98377,-1.17884 -1.68313,1.68313 -3.78886,-1.38538 -4.55234,-6.63377 -0.60888,-4.18563 -0.46956,-4.7681 1.17257,-4.90231 1.02495,-0.0838 2.53854,-0.2173 3.36354,-0.29671 0.825,-0.0794 1.37005,-0.73823 1.21122,-1.46403 -0.15883,-0.7258 0.41935,-2.40038 1.28485,-3.7213 1.44184,-2.20052 1.43399,-2.45526 -0.0937,-3.04148 -0.91703,-0.3519 -2.50161,-0.11879 -3.52129,0.51801 -4.20814,2.62803 -6.8811,0.22173 -6.8811,-6.19465 0,-6.73606 -1.80627,-8.13103 -6.525,-5.0392 -2.26662,1.48515 -2.50387,1.48 -3.0976,-0.0672 -0.84024,-2.18964 1.35609,-4.59038 2.50251,-2.73543 0.63866,1.03337 1.03385,1.00314 1.9929,-0.15243 0.98722,-1.18953 0.42816,-1.81324 -3.19932,-3.56927 -2.41757,-1.17033 -5.08715,-1.86248 -5.93241,-1.53813 -1.81443,0.69626 -5.68331,-3.08579 -5.86608,-5.73442 -0.20688,-2.99801 -0.28702,-3.18283 -2.95342,-6.81144 -1.41454,-1.925 -3.29902,-5.43706 -4.18773,-7.80457 l -1.61583,-4.30458 4.82295,-5.32566 4.82294,-5.32567 -0.48078,-6.86976 c -0.26443,-3.77837 -0.4597,-8.74657 -0.43393,-11.04044 0.0262,-2.32679 -0.54768,-4.66412 -1.29793,-5.28677 -0.73964,-0.61385 -1.13,-1.93748 -0.86747,-2.94141 0.28773,-1.10029 -0.17787,-2.07675 -1.17218,-2.45831 -1.1579,-0.44433 -1.46043,-1.30504 -1.01506,-2.8879 0.47379,-1.68391 0.38203,-1.88829 -0.36235,-0.80708 -1.76183,2.55906 -3.58736,-3.10177 -2.46476,-7.64305 0.5173,-2.09264 0.87359,-5.1548 0.79177,-6.8048 -0.0818,-1.65 -0.21907,-4.6247 -0.305,-6.61045 -0.0859,-1.98575 -1.22997,-5.19272 -2.54234,-7.12659 -1.68135,-2.47762 -2.60045,-5.65049 -3.11182,-10.74243 -0.67872,-6.7584 -0.60516,-7.18873 1.13612,-6.64624 1.024,0.31903 2.53682,0.13701 3.36182,-0.40448 1.27763,-0.83857 1.15881,-1.24927 -0.80151,-2.77033 -2.11482,-1.64093 -2.2182,-2.14733 -1.27445,-6.24264 2.81943,-12.23462 -0.89791,-46.30991 -5.67631,-52.03227 -0.96125,-1.15114 -2.52367,-3.01063 -3.47205,-4.13218 -2.19621,-2.59725 -5.985644,-12.64364 -5.230175,-13.86602 C 97.860396,191.41687 97.70982,191 97.210891,191 c -0.498928,0 -1.699016,-1.75606 -2.666861,-3.90236 -0.967846,-2.1463 -3.489487,-5.59143 -5.603647,-7.65585 -3.329235,-3.25092 -3.694566,-4.0339 -2.728436,-5.84765 0.982413,-1.84431 0.927757,-1.93933 -0.458132,-0.79647 -1.325669,1.0932 -1.812289,0.95693 -3.088281,-0.8648 -0.833061,-1.18936 -1.275459,-2.78581 -0.983107,-3.54767 C 81.97478,167.62334 81.715833,167 81.106989,167 c -0.608844,0 -1.11767,-0.5625 -1.130724,-1.25 -0.01305,-0.6875 -1.106955,-3.88458 -2.43089,-7.10463 -1.95947,-4.76578 -2.20177,-6.3054 -1.30282,-8.27837 0.735822,-1.61496 1.348037,-2.02944 1.834647,-1.24209 0.434062,0.70233 0.738682,0.20678 0.750946,-1.22162 0.07131,-8.3052 1.599912,-16.49189 3.304306,-17.69675 1.336434,-0.94474 1.759255,-2.34584 1.568335,-5.19697 -0.143765,-2.14693 -0.609039,-4.25115 -1.033942,-4.67606 -0.424904,-0.4249 -0.447296,0.0751 -0.04976,1.11102 0.516003,1.34468 0.374349,1.66821 -0.495124,1.13085 C 80.016457,121.2741 82.802338,107 85.161813,107 c 0.505545,0 2.25404,0.98691 3.885545,2.19313 2.297696,1.69876 3.235328,1.92418 4.159508,1 0.656224,-0.65622 2.565634,-1.17945 4.243134,-1.16272 2.56448,0.0256 2.77016,0.19337 1.29208,1.05412 -0.966856,0.56304 -2.316856,0.68798 -3,0.27763 -0.829092,-0.49801 -0.785746,-0.18351 0.130365,0.94588 1.458785,1.7984 3.671511,2.38112 2.627555,0.69196 -1.437503,-2.32593 1.53429,-0.74796 3.91111,2.07673 2.67402,3.17789 3.3831,5.92327 1.52987,5.92327 -0.58246,0 -0.7809,0.45 -0.44098,1 0.33992,0.55 0.14148,1 -0.44098,1 -2.05415,0 -1.00407,1.77029 4.19098,7.06545 6.03678,6.1531 10.19854,8.16697 17.25,8.34724 3.61393,0.0924 6.10886,0.87107 9,2.80896 2.36913,1.58799 5.26419,2.64064 7.10063,2.58181 1.70535,-0.0546 4.85535,0.80805 7,1.91707 10.20511,5.27717 10.63409,5.27332 17.75111,-0.15922 l 4.31173,-3.29122 1.00003,2.64937 c 0.70713,1.87341 2.2596,3.06507 5.30055,4.06868 5.94142,1.96084 7.03595,3.36374 7.03595,9.01819 0,2.67491 0.52297,6.13027 1.16215,7.67857 1.10995,2.68864 1.88337,8.75947 2.07855,16.3151 0.0497,1.925 0.26998,2.96278 0.48946,2.30618 0.21948,-0.65661 1.01765,-0.95645 1.77371,-0.66632 0.75606,0.29013 1.94898,-0.39212 2.65092,-1.51612 1.10436,-1.76836 1.48419,-1.85544 2.82001,-0.64655 1.89018,1.71059 10.0252,0.91016 10.0252,-0.98641 0,-2.02862 2.9928,-4.00389 4.44355,-2.93279 6.16278,4.55001 6.01664,4.50644 10.63615,3.17111 6.3275,-1.82906 8.56832,-1.23901 9.30622,2.4505 1.10549,5.52744 0.72735,6.67282 -2.74736,8.32167 -1.8488,0.87731 -3.87448,2.7211 -4.50152,4.09731 -1.0497,2.30383 -0.8823,2.61581 2.11144,3.93519 4.61925,2.03577 7.43654,4.40614 6.24665,5.25572 -0.54732,0.39078 -1.10802,1.83551 -1.24599,3.21051 -0.13797,1.375 -0.42197,4.26452 -0.6311,6.42116 -0.20914,2.15664 -0.0454,5.08888 0.36396,6.51609 0.7613,2.65448 -1.01007,5.62516 -2.53577,4.25264 -0.42178,-0.37944 -0.45597,-0.14808 -0.076,0.51412 0.38,0.66221 0.4126,2.31292 0.0724,3.66825 -0.51874,2.06684 -1.41064,2.57319 -5.53059,3.13983 -3.96021,0.54467 -4.91211,1.05106 -4.91211,2.61313 0,1.06565 -0.64659,2.18567 -1.43686,2.48892 -0.79027,0.30326 -1.2219,1.11153 -0.95918,1.79617 0.59814,1.55875 -1.34404,6.81101 -2.86652,7.75196 -0.62559,0.38664 -1.13744,2.34529 -1.13744,4.35257 0,3.01299 0.68901,4.23921 3.95,7.02983 2.1725,1.85913 4.738,3.39713 5.70111,3.41778 3.16997,0.068 9.46624,7.75187 11.89022,14.5107 l 2.28997,6.38515 2.89585,-1.67915 c 1.59273,-0.92353 3.12526,-2.25842 3.40564,-2.96641 0.66462,-1.67824 7.17323,-4.38885 8.52795,-3.55159 0.63762,0.39407 0.74784,0.16174 0.28135,-0.59305 -0.47336,-0.76591 0.43321,-2.47914 2.36838,-4.47573 2.81555,-2.90491 3.11287,-3.78846 2.91531,-8.66359 -0.27393,-6.75984 2.24465,-11.49664 5.25592,-9.88506 3.14266,1.68191 7.18266,-0.0393 12.12045,-5.16378 4.63272,-4.80789 4.79354,-4.87994 10.89194,-4.87994 5.4426,0 6.92711,-0.46165 12.29785,-3.82434 3.35943,-2.10339 6.95897,-4.1386 7.99896,-4.52269 2.41462,-0.89176 6.4004,1.66791 7.62898,4.89933 0.51184,1.34623 1.60092,2.4477 2.42019,2.4477 2.00885,0 3.55993,3.1422 3.55993,7.21175 0,1.83878 0.70107,4.34415 1.55793,5.5675 0.85687,1.22334 1.28349,2.66831 0.94806,3.21105 -0.34912,0.5649 0.0537,0.73218 0.94207,0.39126 0.99069,-0.38017 1.55194,-0.0357 1.55194,0.95243 0,2.12302 1.81317,3.06595 3.38581,1.76078 0.71402,-0.59258 1.53488,-0.84075 1.82414,-0.55148 0.28927,0.28926 0.31996,-0.55159 0.0682,-1.86857 -0.35627,-1.86369 0.0609,-2.53337 1.88206,-3.02095 3.80282,-1.01817 4.20528,-0.81025 7.26906,3.75545 1.89102,2.81803 4.06872,4.71496 6.14402,5.35189 l 3.21475,0.98664 -0.89402,-3.11727 c -1.4355,-5.00531 -1.09428,-6.06783 2.58498,-8.04924 1.91345,-1.03046 3.74758,-2.71978 4.07585,-3.75404 0.7932,-2.49916 5.03459,-5.19873 6.98937,-4.44861 0.90255,0.34635 1.30026,0.17878 0.94396,-0.39772 -0.33863,-0.54791 0.0636,-1.67549 0.89381,-2.50572 1.34601,-1.34601 1.33613,-1.9773 -0.0912,-5.82849 -1.47552,-3.98117 -1.47128,-4.57845 0.0542,-7.63646 0.91024,-1.82461 1.6582,-3.81084 1.66214,-4.41384 0.0128,-1.95464 11.52521,-13.70633 13.03695,-13.30788 0.80074,0.21105 1.11244,0.193 0.69268,-0.0401 -0.41977,-0.23312 1.38023,-2.77958 4,-5.65881 L 382.5,198.3546 v -8.09137 c 0,-4.45025 0.29178,-8.38432 0.6484,-8.74237 0.94748,-0.95127 10.03513,4.95273 9.12274,5.92679 -0.42413,0.45279 0.21405,0.31109 1.41817,-0.3149 1.46425,-0.76122 2.39789,-0.80068 2.8191,-0.11914 0.99303,1.60676 2.47336,0.11205 1.77835,-1.79564 -0.58384,-1.60256 -0.49164,-1.6004 1.37242,0.032 1.09906,0.9625 2.63787,1.75689 3.41956,1.76531 1.17965,0.0127 1.16626,0.19385 -0.0787,1.06551 -1.14295,0.80021 -0.90491,0.8835 1,0.34991 1.375,-0.38516 2.78027,-1.1361 3.12283,-1.66876 0.3895,-0.60566 1.4703,-0.5149 2.8851,0.24227 1.37192,0.73424 1.83865,1.47255 1.18589,1.87597 -0.59201,0.36589 0.67789,0.66524 2.82201,0.66524 2.39069,0 4.97854,0.806 6.69128,2.08403 3.58273,2.6734 9.47252,12.33924 8.91031,14.62288 -0.23728,0.96379 0.1533,2.08879 0.86795,2.5 0.71465,0.4112 2.52453,3.67264 4.02195,7.24764 6.32097,15.09091 12.3577,23.7321 20.49268,29.33395 l 2.5,1.72153 -2.5,-0.57549 c -2.12043,-0.48811 -2.2331,-0.40819 -0.74208,0.52638 0.96686,0.60603 2.23078,0.80963 2.80872,0.45244 2.73443,-1.68997 17.05733,12.91355 15.3596,15.66054 -0.46054,0.74517 -0.30838,0.92584 0.40725,0.48356 0.62838,-0.38836 2.38081,0.44211 3.89429,1.84549 1.51348,1.40338 3.09388,2.5516 3.512,2.5516 0.98331,0 0.9918,2.70382 0.0102,3.25277 -0.4125,0.23069 -0.21622,0.29334 0.43618,0.13921 0.65239,-0.15412 2.22739,0.49399 3.5,1.44025 1.2726,0.94627 3.57471,2.35968 5.11579,3.14092 1.54109,0.78124 4.24109,2.92059 6,4.75411 1.75892,1.83352 4.66333,4.25839 6.45426,5.38861 1.79093,1.13022 3.03327,2.41571 2.76076,2.85664 -0.27251,0.44092 0.0622,0.75338 0.74377,0.69435 0.68158,-0.059 3.03924,0.42131 5.23924,1.06744 2.2,0.64612 5.125,1.40471 6.5,1.68575 1.43696,0.2937 7.17737,5.21516 13.5,11.57404 8.6041,8.65342 10.68369,11.26027 9.54775,11.9685 -0.79874,0.498 -1.85614,0.65583 -2.34977,0.35075 -0.49364,-0.30508 -0.39836,0.37799 0.21172,1.51793 0.75277,1.40657 1.96584,2.00773 3.77483,1.87068 2.32459,-0.17611 3.09577,0.60964 6.02811,6.14198 2.20449,4.15914 3.15481,7.08647 2.75943,8.5 -0.41096,1.4692 -0.31174,1.73723 0.31144,0.84135 0.66648,-0.95813 1.50932,-0.009 3.10755,3.5 1.20617,2.6481 3.28806,6.83972 4.62642,9.31472 1.33837,2.475 2.2246,5.08587 1.96941,5.80194 -0.25519,0.71606 -0.0684,1.05743 0.41518,0.75858 1.23021,-0.76031 4.33448,4.24772 3.48498,5.62223 -0.38503,0.62299 -0.25173,0.85165 0.2983,0.51171 1.43154,-0.88473 8.44881,12.72785 7.71974,14.97526 -0.39697,1.22369 -0.29854,1.42276 0.297,0.60065 1.33789,-1.84686 4.59443,4.15114 3.796,6.99158 -0.41322,1.47004 -0.32062,1.79553 0.26986,0.94851 0.95272,-1.36666 5.41149,5.14816 10.61258,15.5063 3.21832,6.40938 3.22296,6.63176 0.12615,6.03977 l -2.49332,-0.47663 2.86046,5.11005 c 2.02821,3.62326 3.34605,8.16506 4.52939,15.61005 0.91791,5.775 2.25318,13.2 2.96727,16.5 1.1432,5.28305 1.11034,6.13877 -0.27504,7.16132 -0.86536,0.63873 -1.87388,0.97561 -2.24115,0.74862 -0.36728,-0.22698 -0.50833,0.37542 -0.31346,1.33868 0.19488,0.96326 1.0995,6.47631 2.01027,12.25123 0.91077,5.77491 2.31702,11.77822 3.125,13.34068 1.5872,3.06931 1.01558,10.11396 -0.91762,11.30874 -0.6753,0.41736 -0.77027,0.17882 -0.25848,-0.64927 0.53934,-0.87268 0.41874,-1.06781 -0.3618,-0.58541 -0.64395,0.39798 -0.91767,1.13321 -0.60827,1.63384 0.69428,1.12337 -1.36373,5.16987 -2.3301,4.58149 -0.38491,-0.23435 -0.80891,1.42075 -0.94223,3.67799 -0.13685,2.31692 -0.86982,4.4552 -1.6832,4.91039 -1.91181,1.0699 -6.5744,11.02591 -6.5744,14.03827 0,1.30924 0.69539,4.72208 1.54532,7.58409 0.84993,2.86201 1.2304,5.71322 0.84549,6.33601 -0.39248,0.63505 -0.25702,0.85868 0.30845,0.5092 1.11127,-0.6868 3.52879,3.75275 2.56718,4.71436 -1.22818,1.22817 -2.18339,0.54107 -1.59907,-1.15023 0.33252,-0.9625 -0.90179,0.46718 -2.74291,3.17708 -3.09397,4.55389 -3.37873,5.6408 -3.75965,14.35026 l -0.41214,9.42319 -3.12633,-0.59887 c -1.80795,-0.34632 -2.58287,-0.24819 -1.83759,0.23271 0.97108,0.62659 1.03271,1.50503 0.25,3.5637 -1.83313,4.82151 -1.12903,9.20645 2.87739,17.91955 2.15388,4.68422 3.61638,8.85117 3.25,9.2599 -0.36638,0.40872 -0.1313,0.43652 0.5224,0.0618 0.6537,-0.37474 1.5537,-0.0354 2,0.75399 0.4463,0.78944 2.65408,3.39791 4.90617,5.79661 6.56885,6.99646 7.93263,11.1348 5.05449,15.3376 -0.74295,1.08488 -1.66516,3.26437 -2.04938,4.84331 -0.38421,1.57894 -1.35134,3.52358 -2.14919,4.32143 -0.79785,0.79784 -1.44374,1.98098 -1.43532,2.6292 0.009,0.69174 0.41739,0.55897 0.98871,-0.32143 0.69279,-1.06759 0.96008,0.0855 0.92723,4 -0.0254,3.025 0.11103,20.8 0.30315,39.5 0.34092,33.18251 0.40637,34.13224 2.72239,39.5 2.42381,5.61756 9.68863,15.05327 15.85055,20.58703 3.09264,2.77737 3.31933,3.32909 2.25989,5.5 -1.1164,2.28765 -1.09668,2.312 0.37976,0.46889 1.51782,-1.89476 1.65186,-1.85671 5.28439,1.5 2.04989,1.89425 3.99388,3.79112 4.31997,4.21528 1.17611,1.52981 11.55195,5.03621 16.19865,5.47415 4.49242,0.4234 5.21374,1.02494 4.82101,4.02047 -0.0913,0.69621 0.21798,1.14621 0.68722,1 0.46925,-0.1462 2.06561,1.03739 3.54747,2.6302 2.104,2.26153 2.6943,2.51714 2.6943,1.16667 0,-0.95115 0.5625,-1.54328 1.25,-1.31586 1.9693,0.65144 4.50339,11.7645 3.38237,14.83315 -1.12507,3.07976 1.85933,9.79792 7.04248,15.85326 1.79046,2.09175 2.93358,4.12499 2.54027,4.51831 -0.39332,0.39331 -0.26512,0.62433 0.28488,0.51336 2.37613,-0.47939 2.74547,0.14468 0.94113,1.59026 -1.86785,1.49645 -1.85706,1.51447 0.28584,0.47714 3.2347,-1.56584 5.77499,0.41033 8.83489,6.87292 2.43338,5.13938 2.72095,11.00562 0.47135,9.61529 -1.25898,-0.77809 -0.26093,4.13845 1.55164,7.64357 0.82329,1.59205 1.23012,3.32628 0.90408,3.85382 -0.32604,0.52755 0.0463,0.71392 0.82749,0.41416 1.81875,-0.69792 7.96656,8.37783 7.32831,10.81847 -0.25202,0.96372 -0.0886,1.5238 0.36312,1.24461 1.21001,-0.74783 5.25691,6.26745 4.40793,7.64112 -0.4577,0.74057 -0.29162,0.90503 0.45067,0.44627 1.41055,-0.87177 4.54896,5.9363 3.51085,7.61599 -0.41591,0.67296 -0.23071,0.8289 0.47006,0.3958 0.7113,-0.4396 1.56457,0.35893 2.2169,2.0747 0.74801,1.9674 0.74746,2.89373 -0.002,3.14351 C 696.47808,853.00731 696,853.76667 696,854.5 c 0,0.73333 -0.48612,1.49537 -1.08028,1.69343 -2.50261,0.8342 3.93623,10.78697 7.00459,10.82726 1.52348,0.02 5.66531,7.79301 9.58023,17.97931 0.95122,2.475 2.86109,6.87357 4.24415,9.7746 1.38306,2.90104 2.81376,8.16433 3.17932,11.69622 0.40989,3.96015 1.34228,7.17036 2.43247,8.37501 1.33948,1.48011 1.60366,2.82842 1.09032,5.56475 -0.42889,2.28615 -0.23736,4.14167 0.52194,5.05658 0.65969,0.79488 0.86617,1.98447 0.45884,2.64354 -0.46851,0.75808 -0.31645,0.93618 0.41391,0.48479 1.54251,-0.95332 1.41102,0.48274 -0.24386,2.66316 -0.76608,1.00937 -1.19059,3.45919 -0.99637,5.75 0.31656,3.73375 0.16781,3.99135 -2.30469,3.99135 -1.4537,0 -3.48123,0.75851 -4.50563,1.68558 -2.09478,1.89575 -14.43232,3.15474 -13.32282,1.35953 0.3736,-0.60449 -0.002,-0.77884 -0.92018,-0.42667 -0.85357,0.32755 -1.55194,0.12772 -1.55194,-0.44406 0,-0.57178 -0.9,-1.32525 -2,-1.67438 -1.1,-0.34913 -2,-1.08101 -2,-1.6264 0,-0.5454 0.35798,-0.77039 0.79552,-0.49997 1.6081,0.99386 0.6457,-4.22939 -1.14348,-6.20603 -1.01638,-1.12287 -1.55551,-2.51477 -1.19806,-3.09313 0.38662,-0.62557 0.0523,-0.82223 -0.82535,-0.48546 -0.8791,0.33735 -1.93061,-0.28474 -2.60211,-1.53946 -0.61978,-1.15806 -1.55429,-1.84141 -2.07669,-1.51854 -1.34931,0.83391 -1.18131,-1.89953 0.20174,-3.28258 0.86876,-0.86876 0.56375,-1.76231 -1.24196,-3.63844 -1.31644,-1.36778 -2.44111,-3.07708 -2.49925,-3.79843 -0.0581,-0.72136 -0.17427,-2.214 -0.25805,-3.31699 -0.0838,-1.10298 -1.96801,-3.93306 -4.18719,-6.28905 -2.21918,-2.356 -3.77137,-4.70999 -3.44931,-5.2311 0.35962,-0.58188 -0.30218,-0.62164 -1.71512,-0.10306 -1.56128,0.57304 -2.38808,1.77391 -2.57259,3.73653 -0.21818,2.32061 0.37464,3.30679 3,4.99063 l 3.2719,2.09851 v 8.90149 8.90148 l -3.25,0.31336 c -1.82556,0.17601 -3.25,-0.1527 -3.25,-0.75 C 673,928.47851 672.56412,928 672.03138,928 c -0.53273,0 -0.73393,0.61156 -0.44711,1.35902 0.42135,1.098 -0.45851,1.20409 -4.58124,0.55238 -3.77657,-0.597 -5.8438,-1.59994 -7.9541,-3.85902 -1.56824,-1.67881 -3.45831,-3.05927 -4.20014,-3.06769 -1.02933,-0.0117 -0.99352,-0.24182 0.15121,-0.97166 1.961,-1.25026 -5.75362,-0.11817 -8.37717,1.22932 -1.33769,0.68705 -2.15513,0.57523 -2.84434,-0.3891 -0.74678,-1.0449 -0.84527,-0.97115 -0.43226,0.32364 0.29419,0.92228 -0.13498,2.23282 -0.9537,2.9123 -1.19506,0.99181 -2.1902,0.90085 -5.04664,-0.46129 -2.67174,-1.27406 -3.89436,-1.4176 -4.90816,-0.57622 -0.74257,0.61628 -1.88936,0.78723 -2.54843,0.3799 -0.75495,-0.46658 -0.93623,-0.31654 -0.48996,0.40555 0.6339,1.02567 -4.78074,9.16571 -6.64934,9.9962 -0.4125,0.18334 -0.75,0.88665 -0.75,1.56291 0,0.67627 -1.32023,2.49444 -2.93384,4.04037 -2.465,2.36162 -3.48226,2.70791 -6.36575,2.16696 C 608.4302,942.80248 606,943.67165 606,946 c 0,0.98231 -0.62216,2.02477 -1.38258,2.31657 -0.76042,0.2918 -1.77292,2.088 -2.25,3.99155 l -0.86742,3.461 z M 598,948.55902 c 0,-0.24254 -0.45,-0.7191 -1,-1.05902 -0.55,-0.33992 -1,-0.14148 -1,0.44098 0,0.58246 0.45,1.05902 1,1.05902 0.55,0 1,-0.19844 1,-0.44098 z m 116,-6.67705 c 0,-0.55 -0.45,-0.72189 -1,-0.38197 -0.55,0.33992 -1,1.06803 -1,1.61803 0,0.55 0.45,0.72189 1,0.38197 0.55,-0.33992 1,-1.06803 1,-1.61803 z M 716.5,940 c 0.33992,-0.55 0.14148,-1 -0.44098,-1 -0.58246,0 -1.05902,0.45 -1.05902,1 0,0.55 0.19844,1 0.44098,1 0.24254,0 0.7191,-0.45 1.05902,-1 z m -97.0841,-1.64144 c 0.52667,-1.37248 0.38034,-1.43434 -0.89301,-0.37756 -1.73524,1.44013 -1.91584,2.019 -0.62988,2.019 0.49116,0 1.17646,-0.73865 1.52289,-1.64144 z M 702,938.10699 c 0,-0.49116 -0.73865,-1.17646 -1.64144,-1.52289 -1.37248,-0.52667 -1.43434,-0.38034 -0.37756,0.89301 1.44013,1.73524 2.019,1.91584 2.019,0.62988 z M 587.68311,925.8125 c -0.31922,-0.79773 -0.55618,-0.56078 -0.60416,0.60417 -0.0434,1.05416 0.19293,1.64479 0.52522,1.3125 0.33229,-0.33229 0.36781,-1.1948 0.0789,-1.91667 z M 675,910.55902 c 0,-0.24254 -0.45,-0.7191 -1,-1.05902 -0.55,-0.33992 -1,-0.14148 -1,0.44098 0,0.58246 0.45,1.05902 1,1.05902 0.55,0 1,-0.19844 1,-0.44098 z m 42.68311,-1.74652 c -0.31922,-0.79773 -0.55618,-0.56078 -0.60416,0.60417 -0.0434,1.05416 0.19293,1.64479 0.52522,1.3125 0.33229,-0.33229 0.36781,-1.1948 0.0789,-1.91667 z M 439.5,826 c -0.33992,-0.55 -1.15398,-0.99311 -1.80902,-0.98469 -0.71561,0.009 -0.59227,0.40223 0.30902,0.98469 1.92112,1.24153 2.2673,1.24153 1.5,0 z m -73.89726,-44.82583 c -1.50588,-1.50588 -1.53363,-1.4251 -0.36607,1.06552 0.69483,1.48221 1.42806,2.21545 1.6294,1.62941 0.20134,-0.58604 -0.36716,-1.79876 -1.26333,-2.69493 z m -17.91963,-6.36167 c -0.31922,-0.79773 -0.55618,-0.56078 -0.60416,0.60417 -0.0434,1.05416 0.19293,1.64479 0.52522,1.3125 0.33229,-0.33229 0.36781,-1.1948 0.0789,-1.91667 z m 3,0 c -0.31922,-0.79773 -0.55618,-0.56078 -0.60416,0.60417 -0.0434,1.05416 0.19293,1.64479 0.52522,1.3125 0.33229,-0.33229 0.36781,-1.1948 0.0789,-1.91667 z m 300.12376,-9.33896 c -0.30789,-0.30789 -0.86705,0.24711 -1.24258,1.23333 -0.54268,1.4252 -0.42782,1.54006 0.5598,0.5598 0.68342,-0.67834 0.99067,-1.48524 0.68278,-1.79313 z m 2.57469,0.97452 c 0.34149,-0.88992 0.17385,-1.29132 -0.39301,-0.94098 -0.5437,0.33602 -0.98855,1.0344 -0.98855,1.55194 0,1.43843 0.71677,1.12146 1.38156,-0.61096 z M 653,762 c 0,-0.55 -0.19844,-1 -0.44098,-1 -0.24254,0 -0.7191,0.45 -1.05902,1 -0.33992,0.55 -0.14148,1 0.44098,1 C 652.52344,763 653,762.55 653,762 Z M 324.72917,749.39583 c -0.33229,-0.33229 -1.1948,-0.36781 -1.91667,-0.0789 -0.79773,0.31922 -0.56078,0.55618 0.60417,0.60416 1.05416,0.0434 1.64479,-0.19293 1.3125,-0.52522 z m 315,-1 c -0.33229,-0.33229 -1.1948,-0.36781 -1.91667,-0.0789 -0.79773,0.31922 -0.56078,0.55618 0.60417,0.60416 1.05416,0.0434 1.64479,-0.19293 1.3125,-0.52522 z M 284.602,730.84216 c -0.8811,-1.25794 -1.602,-1.95594 -1.602,-1.5511 0,1.11494 2.36861,4.67367 2.81414,4.22813 0.21442,-0.21442 -0.33104,-1.41908 -1.21214,-2.67703 z m 2.52007,-0.51716 c -1.17884,-2.02721 -1.46351,-1.37835 -0.49853,1.13634 0.34294,0.8937 0.83419,1.41426 1.09166,1.15679 0.25747,-0.25747 -0.009,-1.28938 -0.59313,-2.29313 z M 604,725.62244 c 0,-0.20765 -0.7875,-0.99515 -1.75,-1.75 -1.58606,-1.24387 -1.62143,-1.2085 -0.37756,0.37756 1.30637,1.66575 2.12756,2.19548 2.12756,1.37244 z M 270.78776,684.86329 c -0.24965,-0.74895 -0.70294,-0.29565 -1.05655,1.05655 -0.43497,1.66335 -0.30483,2.05378 0.43724,1.31171 0.5811,-0.5811 0.85979,-1.64682 0.61931,-2.36826 z m -1.10465,-8.05079 c -0.31922,-0.79773 -0.55618,-0.56078 -0.60416,0.60417 -0.0434,1.05416 0.19293,1.64479 0.52522,1.3125 0.33229,-0.33229 0.36781,-1.1948 0.0789,-1.91667 z M 595,610.44098 c 0,-0.85746 -0.45734,-1.27636 -1.01631,-0.9309 -0.55897,0.34546 -0.75742,1.04702 -0.44098,1.55902 0.85723,1.38704 1.45729,1.12841 1.45729,-0.62812 z m -16.19313,-22.96744 c -0.30789,-0.30789 -0.86705,0.24711 -1.24258,1.23333 -0.54268,1.4252 -0.42782,1.54006 0.5598,0.5598 0.68342,-0.67834 0.99067,-1.48524 0.68278,-1.79313 z M 216,588.65499 c 0,-0.18976 -1.0125,-1.20226 -2.25,-2.25 L 211.5,584.5 l 1.90499,2.25 C 215.19521,588.86444 216,589.45524 216,588.65499 Z M 581.93639,538.5 c 0,-0.55 -0.66069,-0.12649 -1.46819,0.94113 -0.80751,1.06762 -1.4682,2.39113 -1.4682,2.94113 0,0.55 0.66069,0.12649 1.4682,-0.94113 0.8075,-1.06762 1.46819,-2.39113 1.46819,-2.94113 z M 167.38156,505.44806 c 0.34149,-0.88992 0.17385,-1.29132 -0.39301,-0.94098 -0.5437,0.33602 -0.98855,1.0344 -0.98855,1.55194 0,1.43843 0.71677,1.12146 1.38156,-0.61096 z m -17.95299,-15.87663 c -0.36782,-1.46551 -0.86162,-2.47171 -1.09733,-2.236 -0.23572,0.23572 -0.12763,1.62763 0.24019,3.09314 0.36782,1.46551 0.86162,2.47171 1.09733,2.236 0.23572,-0.23572 0.12763,-1.62763 -0.24019,-3.09314 z m 444.25454,-3.75893 c -0.31922,-0.79773 -0.55618,-0.56078 -0.60416,0.60417 -0.0434,1.05416 0.19293,1.64479 0.52522,1.3125 0.33229,-0.33229 0.36781,-1.1948 0.0789,-1.91667 z m -0.0208,-19.0625 c -0.27741,-0.6875 -0.50439,-0.125 -0.50439,1.25 0,1.375 0.22698,1.9375 0.50439,1.25 0.27741,-0.6875 0.27741,-1.8125 0,-2.5 z m -434.3172,-20.29313 c -0.32569,-0.84872 -0.80663,-1.32866 -1.06875,-1.06653 -0.26213,0.26213 -0.17998,0.95654 0.18255,1.54313 0.98605,1.59546 1.56238,1.28551 0.8862,-0.4766 z M 590.68311,421.8125 c -0.31922,-0.79773 -0.55618,-0.56078 -0.60416,0.60417 -0.0434,1.05416 0.19293,1.64479 0.52522,1.3125 0.33229,-0.33229 0.36781,-1.1948 0.0789,-1.91667 z M 588,412.55902 c 0,-0.24254 -0.45,-0.7191 -1,-1.05902 -0.55,-0.33992 -1,-0.14148 -1,0.44098 0,0.58246 0.45,1.05902 1,1.05902 0.55,0 1,-0.19844 1,-0.44098 z m -2.58571,-4.54473 c -0.64762,-0.64762 -0.98572,-0.30953 -0.98572,0.98571 0,1.29524 0.3381,1.63333 0.98572,0.98571 0.64761,-0.64761 0.64761,-1.32381 0,-1.97142 z m -5.01943,-17.28609 c 0.39097,0.39096 0.40647,-0.0824 0.0344,-1.05181 -0.37201,-0.96945 -0.74813,-1.63074 -0.83582,-1.46952 -0.0877,0.16122 -0.81959,1.19313 -1.62646,2.29313 -1.32195,1.80222 -1.3096,1.87724 0.12498,0.75868 0.8756,-0.68273 1.91189,-0.92145 2.30285,-0.53048 z m -2.0133,-3.28014 c 0.34149,-0.88992 0.17385,-1.29132 -0.39301,-0.94098 -0.5437,0.33602 -0.98855,1.0344 -0.98855,1.55194 0,1.43843 0.71677,1.12146 1.38156,-0.61096 z M 576,381.62244 c 0,-0.20765 -0.7875,-0.99515 -1.75,-1.75 -1.58606,-1.24387 -1.62143,-1.2085 -0.37756,0.37756 1.30637,1.66575 2.12756,2.19548 2.12756,1.37244 z M 569.66228,375.75 c -0.27741,-0.6875 -0.50439,-0.125 -0.50439,1.25 0,1.375 0.22698,1.9375 0.50439,1.25 0.27741,-0.6875 0.27741,-1.8125 0,-2.5 z m -31.53819,-63.01667 c -0.98762,-0.98026 -1.10248,-0.8654 -0.5598,0.5598 0.37553,0.98622 0.93469,1.54122 1.24258,1.23333 0.30789,-0.30789 6.4e-4,-1.11479 -0.68278,-1.79313 z m -7.82676,-7.65669 c -0.43853,-0.32995 -1.08904,-0.96139 -1.44559,-1.4032 -0.35654,-0.4418 -0.58154,0.31238 -0.5,1.67596 0.11428,1.91093 0.44565,2.23258 1.44559,1.4032 0.71354,-0.59183 0.93854,-1.34601 0.5,-1.67596 z m -21.46348,-11.95279 c 1.06752,-0.6767 1.00723,-0.97085 -0.30194,-1.47323 -0.89968,-0.34524 -1.38461,-0.2213 -1.07762,0.27542 0.307,0.49673 -0.007,1.13105 -0.69806,1.4096 -0.69093,0.27856 -0.80623,0.5351 -0.25623,0.5701 0.55,0.035 1.60023,-0.31685 2.33385,-0.78189 z m 4.89532,0.27198 c -0.33229,-0.33229 -1.1948,-0.36781 -1.91667,-0.0789 -0.79773,0.31922 -0.56078,0.55618 0.60417,0.60416 1.05416,0.0434 1.64479,-0.19293 1.3125,-0.52522 z m -288.60508,-21.6625 c -0.98762,-0.98026 -1.10248,-0.8654 -0.5598,0.5598 0.37553,0.98622 0.93469,1.54122 1.24258,1.23333 0.30789,-0.30789 6.4e-4,-1.11479 -0.68278,-1.79313 z m 113.60508,-9.3375 c -0.33229,-0.33229 -1.1948,-0.36781 -1.91667,-0.0789 -0.79773,0.31922 -0.56078,0.55618 0.60417,0.60416 1.05416,0.0434 1.64479,-0.19293 1.3125,-0.52522 z m 131.06716,-2.35035 c -0.67134,-1.07499 -1.41428,-1.76086 -1.65098,-1.52417 -0.42859,0.4286 1.75074,3.47869 2.48557,3.47869 0.21231,0 -0.16325,-0.87953 -0.83459,-1.95452 z M 467,256.62244 c 0,-0.20765 -0.7875,-0.99515 -1.75,-1.75 -1.58606,-1.24387 -1.62143,-1.2085 -0.37756,0.37756 1.30637,1.66575 2.12756,2.19548 2.12756,1.37244 z m -203.75,-4.28472 c -0.6875,-0.27741 -1.8125,-0.27741 -2.5,0 -0.6875,0.27741 -0.125,0.50439 1.25,0.50439 1.375,0 1.9375,-0.22698 1.25,-0.50439 z M 114.68311,249.8125 c -0.31922,-0.79773 -0.55618,-0.56078 -0.60416,0.60417 -0.0434,1.05416 0.19292,1.64479 0.52522,1.3125 0.33229,-0.3323 0.36781,-1.1948 0.0789,-1.91667 z m 96,-9 c -0.31922,-0.79773 -0.55618,-0.56078 -0.60416,0.60417 -0.0434,1.05416 0.19292,1.64479 0.52522,1.3125 0.33229,-0.3323 0.36781,-1.1948 0.0789,-1.91667 z m 158.55681,-25.16422 c 0.63721,0.39382 0.77678,0.18776 0.34549,-0.51008 -0.85086,-1.37672 -2.62054,-0.55006 -2.50646,1.17082 0.0565,0.85244 0.22291,0.83389 0.58541,-0.0652 0.27855,-0.69093 0.98755,-0.9589 1.57556,-0.59549 z M 374,215 c -0.825,-0.53316 -1.95,-0.96937 -2.5,-0.96937 -0.55,0 -0.325,0.43621 0.5,0.96937 0.825,0.53316 1.95,0.96937 2.5,0.96937 0.55,0 0.325,-0.43621 -0.5,-0.96937 z m 43.5,-23 c 0.33992,-0.55 0.14148,-1 -0.44098,-1 -0.58246,0 -1.05902,0.45 -1.05902,1 0,0.55 0.19844,1 0.44098,1 0.24254,0 0.7191,-0.45 1.05902,-1 z M 95.124088,182.73333 c -0.987616,-0.98026 -1.10248,-0.8654 -0.559795,0.5598 0.375531,0.98622 0.934692,1.54122 1.242579,1.23333 0.307887,-0.30789 6.34e-4,-1.11479 -0.682784,-1.79313 z m 131.682782,-0.25979 c -0.30789,-0.30789 -0.86705,0.24711 -1.24258,1.23333 -0.54268,1.4252 -0.42782,1.54006 0.5598,0.5598 0.68342,-0.67834 0.99067,-1.48524 0.68278,-1.79313 z M 215.5,183 c -0.33992,-0.55 -1.15398,-0.99311 -1.80902,-0.98469 -0.71561,0.009 -0.59227,0.40223 0.30902,0.98469 1.92112,1.24153 2.2673,1.24153 1.5,0 z m -7.95888,-4.06653 c 1.02606,-1.66021 0.10511,-1.89043 -1.33055,-0.33261 -0.70918,0.76953 -0.84824,1.39914 -0.30901,1.39914 0.53922,0 1.27702,-0.47994 1.63956,-1.06653 z M 167.5,150 c -0.33992,-0.55 -1.15398,-0.99311 -1.80902,-0.98469 -0.71561,0.009 -0.59227,0.40223 0.30902,0.98469 1.92112,1.24153 2.2673,1.24153 1.5,0 z m -2.5,-2.57037 c 0,-0.275 -0.9,-0.0183 -2,0.57037 -1.1,0.5887 -2,1.29537 -2,1.57037 0,0.275 0.9,0.0183 2,-0.57037 1.1,-0.5887 2,-1.29537 2,-1.57037 z M 131.5,143 c -0.33992,-0.55 -1.15398,-0.99311 -1.80902,-0.98469 -0.71561,0.009 -0.59227,0.40223 0.30902,0.98469 1.92112,1.24153 2.2673,1.24153 1.5,0 z M 110,134.45203 c 0,-1.18139 -1.89074,-1.17914 -2.34429,0.003 -0.36945,0.96277 -0.0714,1.25818 0.89522,0.88726 C 109.34792,135.03625 110,134.63573 110,134.45203 Z m -8,-7.89301 c 0,-0.24254 -0.45,-0.7191 -1,-1.05902 -0.55,-0.33992 -1,-0.14148 -1,0.44098 0,0.58246 0.45,1.05902 1,1.05902 0.55,0 1,-0.19844 1,-0.44098 z m 145.44615,572.35385 c -0.36954,-0.59793 -0.26645,-1.49257 0.22907,-1.98809 0.53462,-0.53462 0.96186,-0.0926 1.05072,1.08713 0.16721,2.21977 -0.27313,2.52976 -1.27979,0.90096 z m 5.0503,-3.16287 c 0.40134,-1.2375 0.72643,-3.2625 0.72241,-4.5 -0.004,-1.2375 0.42167,-2.25 0.94594,-2.25 0.52428,0 0.72122,-0.3754 0.43766,-0.83422 C 253.93104,687.0794 257.92714,679 259.13589,679 c 2.60674,0 2.18776,5.97081 -0.66662,9.5 -0.88967,1.1 -1.28707,1.325 -0.8831,0.5 0.42456,-0.86707 0.35575,-1.15375 -0.16309,-0.67942 -0.49366,0.45132 -0.94113,1.35132 -0.99437,2 -0.0532,0.64868 -0.72014,2.64192 -1.48199,4.42942 -1.55814,3.65577 -3.57907,4.48055 -2.45027,1 z m -6.68513,-10.27202 C 244.76728,684.43395 248.26865,681 250.37723,681 c 1.86172,0 1.86701,0.0726 0.14411,1.97642 -0.98375,1.08703 -2.14006,1.75923 -2.56958,1.49377 -0.42952,-0.26546 -0.94125,-0.002 -1.13718,0.58608 -0.19594,0.5878 -0.6474,0.77757 -1.00326,0.42171 z M 539,318.04484 c 0,-1.0768 2.62466,-2.08684 3.40223,-1.30927 1.1147,1.1147 0.60469,1.8383 -1.40223,1.98948 -1.1,0.0829 -2,-0.22324 -2,-0.68021 z"
        fill="none" stroke="rgba(240,168,32,0.18)" stroke-width="35.8" stroke-linejoin="round"/>
</svg>