<svg xmlns="http://www.w3.org/2000/svg" viewBox="0 0 1266 832">
  <path d="m 233.82528,816.55171 c -8.78404,-1.92461 -15.9783,-5.95881 -21.93476,-12.29998 -9.11453,-9.70321 -10.65282,-10.72442 -16.32281,-10.83615 -10.66147,-0.21008 -21.33883,-8.32431 -27.09984,-20.59444 -1.63233,-3.47663 -3.29346,-6.56534 -3.6914,-6.8638 -0.39794,-0.29846 -1.78167,-2.54363 -3.07496,-4.98928 l -2.35143,-4.44662 -5.63923,-0.0107 c -6.46815,-0.0123 -7.98699,-1.08626 -9.91476,-7.01072 -1.15042,-3.53547 -2.11418,-4.40646 -8.29883,-7.5 -4.06355,-2.03257 -6.88206,-4.05525 -6.72248,-4.82433 0.15112,-0.72838 -0.1638,-1.05328 -0.69983,-0.72199 C 126.95294,737.14712 125,733.94915 125,731.41841 c 0,-0.94219 -0.94512,-4.30515 -2.10027,-7.47326 -1.93123,-5.29659 -2.39402,-5.81397 -5.75,-6.42843 -4.38615,-0.80307 -14.18931,-3.93235 -16.9537,-5.41181 C 97.468323,710.64509 77.509928,680.44749 76.00287,675.5 c -0.670143,-2.2 -2.519938,-6.35568 -4.110656,-9.23485 -3.096254,-5.60416 -3.651642,-10.07625 -1.649509,-13.28217 1.786403,-2.86049 0.3755,-4.47346 -7.742705,-8.85162 -4.394786,-2.37011 -8.180953,-5.32151 -10.173125,-7.93018 -3.630662,-4.7542 -5.909673,-13.28106 -4.936362,-18.46925 0.912599,-4.86458 8.979984,-15.28896 15.8908,-20.53352 5.488535,-4.16521 5.899315,-4.31008 8.111455,-2.86063 C 74.125863,596.12857 75,599.70287 75,609.08754 c 0,6.57081 0.165791,7.03815 4.25,11.98017 3.534389,4.27673 6.438927,6.26237 17.25,11.79272 16.12903,8.25071 17.47607,9.25147 22.1903,16.48594 2.09534,3.21551 4.57813,6.25864 5.51733,6.76251 1.09629,0.58815 4.85535,0.34452 10.5,-0.68054 4.8358,-0.87817 13.74237,-1.77495 19.79237,-1.99284 6.05,-0.21789 13.83975,-0.68607 17.31055,-1.0404 4.90337,-0.50058 7.17519,-0.25434 10.18807,1.10428 6.20862,2.7997 8.64228,1.58654 10.55658,-5.26237 C 194.02226,642.98822 197.66012,638 200.02097,638 c 2.14867,0 8.24428,6.68454 10.56069,11.58102 3.38222,7.14944 5.23186,7.56418 11.71814,2.62753 7.845,-5.97077 9.36687,-6.58926 12.75767,-5.18474 3.66023,1.51611 4.20159,3.3372 2.95153,9.92872 -1.92291,10.13947 -1.58777,11.41879 3.741,14.28053 8.46133,4.54404 21.0318,6.9762 37.25,7.20718 26.74937,0.38098 37.42429,5.31531 55.09032,25.46474 2.51363,2.86698 4.38791,4.09502 6.25,4.09502 1.46282,0 2.65968,-0.21573 2.65968,-0.4794 0,-0.26368 -1.9125,-2.24279 -4.25,-4.39803 -2.3375,-2.15525 -6.5,-7.67702 -9.25,-12.2706 -4.52208,-7.55365 -5,-8.92766 -5,-14.37483 0,-5.0909 0.50349,-6.80748 3.25383,-11.09353 2.88541,-4.49651 4.21586,-5.49932 11.75,-8.85641 4.6729,-2.08216 8.49617,-4.07823 8.49617,-4.43571 0,-0.35749 -0.93805,-1.31181 -2.08454,-2.12073 -1.1465,-0.80892 -2.72286,-2.68854 -3.50302,-4.17693 -1.73228,-3.30486 -0.58157,-7.3135 6.25607,-21.79383 2.46726,-5.225 4.92696,-12.2 5.46601,-15.5 0.53905,-3.3 1.5794,-7.125 2.31188,-8.5 0.73248,-1.375 2.28169,-4.28265 3.44269,-6.46144 1.161,-2.17879 2.11091,-5.43738 2.11091,-7.2413 0,-3.90194 4.55199,-8.82031 9.08462,-9.81585 1.60346,-0.35217 2.91538,-1.11382 2.91538,-1.69253 0,-1.00631 -1.62149,-0.88083 -10.80126,0.83582 -6.31212,1.18039 -8.01758,-5.10187 -3.69874,-13.6247 2.29076,-4.5206 2.5,-6.03689 2.5,-18.11684 0,-12.39128 0.16522,-13.51143 2.75,-18.64429 C 368.60347,517.58663 371.94862,515 377.99141,515 h 4.83795 l 0.71674,-7.64865 c 0.40406,-4.31193 0.22315,-12.51716 -0.41468,-18.8086 -1.52741,-15.06588 -1.42337,-23.19664 0.37427,-29.24997 1.46881,-4.94601 4.63071,-8.29278 7.8347,-8.29278 3.18124,0 12.44775,5.02844 16.48283,8.94435 3.04895,2.95891 4.66047,3.89461 5.49541,3.19082 0.64975,-0.5477 3.36969,-3.04131 6.0443,-5.54136 2.96467,-2.77119 6.19532,-4.79551 8.27624,-5.1859 1.87732,-0.35218 7.114,-2.90764 11.63707,-5.67878 4.52307,-2.77114 10.34947,-5.86253 12.94756,-6.86975 5.97636,-2.31691 26.37313,-6.43054 38.7762,-7.8204 5.225,-0.58551 13.775,-1.55725 19,-2.15942 9.60846,-1.10737 29.14345,-5.37871 52,-11.36984 11.6504,-3.05379 31.02772,-7.35012 56,-12.4163 5.775,-1.17158 16.35,-3.69752 23.5,-5.6132 11.89606,-3.18727 27.8928,-6.85872 47.79931,-10.97052 4.22196,-0.87207 9.33187,-2.58101 11.35536,-3.79764 4.79112,-2.88069 21.14193,-18.49583 21.91382,-20.92787 0.32855,-1.03516 -0.0671,-2.89625 -0.87927,-4.13576 -1.43162,-2.18491 -1.23612,-2.41642 6.41123,-7.59221 6.39685,-4.32943 8.37075,-6.30429 10.44234,-10.4474 4.08568,-8.17123 7.92895,-12.82783 14.12058,-17.10882 C 761.24968,319.56329 765,315.62661 765,312.55034 c 0,-3.87848 2.58491,-8.33847 8.43305,-14.55034 10.29059,-10.93062 17.5518,-22.72783 17.58226,-28.56572 0.008,-1.61386 0.34592,-3.38428 0.75,-3.93428 1.29991,-1.76933 6.56293,-5.03007 13.35297,-8.27291 9.78178,-4.67166 26.74142,-18.51382 39.40287,-32.15992 3.86164,-4.16194 9.36534,-10.04217 12.23045,-13.06717 3.12515,-3.29955 5.21712,-6.41733 5.22885,-7.79284 0.011,-1.28664 1.90831,-4.35856 4.32349,-7 5.06347,-5.53784 10.24204,-12.20858 10.80077,-13.91293 0.21741,-0.66318 1.41723,-2.46318 2.66626,-4 3.39854,-4.1816 9.22903,-13.11947 9.22903,-14.14768 0,-0.49591 0.63589,-1.4294 1.41308,-2.07441 0.7772,-0.64502 1.71704,-3.51262 2.08855,-6.37245 0.38245,-2.94413 1.80574,-6.93484 3.28105,-9.19969 3.89797,-5.98402 4.12654,-13.20333 0.7534,-23.79668 -1.481,-4.6511 -2.54499,-9.74625 -2.36441,-11.32255 0.42055,-3.67097 4.46186,-5.8508 8.20717,-4.42683 1.40988,0.53603 6.28891,1.1497 10.84229,1.36371 11.53723,0.54225 20.52079,3.20054 24.27887,7.18425 1.65,1.74907 4.73968,4.00271 6.86596,5.00808 4.18049,1.97668 10.63404,8.04779 10.63404,10.00387 0,0.66388 1.02649,2.73235 2.28108,4.5966 2.93481,4.36094 4.94065,11.15792 4.1833,14.17545 -0.37785,1.50548 -0.0351,2.82549 0.94487,3.63879 2.24078,1.85967 3.02797,7.67265 1.65816,12.24464 -1.77694,5.9309 -0.76828,6.55989 9.65736,6.0223 5.09084,-0.26251 9.60341,-1.02752 10.74774,-1.82206 2.98488,-2.07249 3.5264,-1.70831 3.53954,2.38043 0.007,2.14304 1.07819,5.61496 2.5,8.10207 1.36837,2.39364 2.48795,5.22763 2.48795,6.29775 0,2.61691 4.72508,6.85018 7.646,6.85018 1.2947,0 2.354,0.38429 2.354,0.85398 0,0.46968 1.0987,2.03952 2.4416,3.48851 3.9576,4.27034 7.421,11.92819 6.2409,13.7991 -0.7642,1.21144 -0.3939,2.25696 1.5367,4.33906 2.2468,2.42305 3.3192,2.75917 9.1926,2.8812 l 6.6491,0.13815 12.5905,-12.70012 c 10.9911,-11.08685 12.511,-13.01674 11.9649,-15.19269 -0.8611,-3.43089 0.9753,-7.16988 6.6001,-13.43778 2.631,-2.93182 4.7836,-5.74432 4.7836,-6.25 0,-1.4028 -1.6081,-1.09656 -2.9909,0.56958 -0.6796,0.81894 -1.6712,1.21985 -2.2034,0.89091 -1.6969,-1.04874 0.1917,-5.57007 4.2548,-10.18603 2.1667,-2.4615 3.9682,-5.42459 4.0033,-6.58466 0.1949,-6.44213 0.5723,-11.27336 0.9774,-12.5133 0.3254,-0.9959 -0.9947,-1.72316 -4.5412,-2.50167 -4.9169,-1.07934 -5.0042,-1.16402 -5.2527,-5.09591 -0.1389,-2.19908 -0.6962,-5.57333 -1.2382,-7.49833 -0.5421,-1.925 -1.17,-7.1 -1.3954,-11.5 -0.2253,-4.4 -0.6584,-8.675 -0.9623,-9.5 -1.7772,-4.82391 -2.654,-10.469121 -2.0917,-13.466802 0.4903,-2.613373 0.141,-4.144776 -1.4574,-6.389554 C 1050.946,86.519832 1050,84.740986 1050,84.190651 c 0,-0.550334 2.0318,-2.191302 4.515,-3.646596 4.4591,-2.613211 5.652,-3.717525 11.3469,-10.504747 2.7495,-3.276793 3.2953,-3.481451 10.2709,-3.85137 9.2295,-0.489438 11.5418,-2.392128 15.5318,-12.780787 3.6675,-9.548809 6.8929,-9.982861 5.6561,-0.761145 -0.7052,5.25739 1.249,11.993073 4.232,14.586723 3.1333,2.724411 3.114,5.142487 -0.053,6.585317 -2.8308,1.289796 -3.2442,4.232257 -1.1567,8.232325 0.732,1.402704 1.6269,6.400592 1.9886,11.106419 0.3683,4.791035 1.798,12.02955 3.2491,16.44963 1.4253,4.34147 2.9848,9.91858 3.4657,12.39358 0.4808,2.475 1.4049,6.975 2.0535,10 0.6485,3.025 1.2288,8.425 1.2895,12 l 0.1103,6.5 3,-0.165 c 1.65,-0.0908 4.27,-0.48692 5.8221,-0.88037 2.6734,-0.67765 4.0008,-0.30968 10.7186,2.97121 1.8142,0.88607 3.0165,0.94067 4.205,0.19097 1.2781,-0.80621 2.197,-0.56164 3.9594,1.0538 1.2622,1.15703 4.3199,3.11506 6.7949,4.35117 2.475,1.23612 5.5466,3.28468 6.8259,4.55236 2.7797,2.75467 4.0935,2.41157 6.4287,-1.67891 1.7078,-2.99143 1.6946,-3.15783 -0.4954,-6.23435 -1.2375,-1.73848 -4.7791,-5.95196 -7.8701,-9.36327 -6.1415,-6.77789 -6.6089,-8.10659 -7.5623,-21.49978 -0.5191,-7.29152 -0.3373,-9.13281 1.1211,-11.35873 1.6809,-2.5653 1.652,-2.90186 -0.8423,-9.79783 -2.4508,-6.775657 -4.9719,-17.524364 -6.5219,-27.806167 -0.7137,-4.733855 -5.3508,-11.584248 -11.2246,-16.582155 -1.4524,-1.235878 -2.9312,-3.404022 -3.2861,-4.818098 -1.2598,-5.019317 7.0556,-17.042339 11.2267,-16.232494 0.8432,0.163704 2.9584,2.322644 4.7005,4.797644 2.8678,4.074338 3.5656,4.508753 7.3762,4.592536 2.3148,0.05089 4.7295,0.613395 5.3661,1.25 C 1152.8922,48.492201 1156.3833,49 1160.2,49 h 6.8 v -3.133412 c 0,-3.188228 2.1896,-6.043336 11.5,-14.995554 4.3096,-4.143784 8.5831,-5.024473 12.8157,-2.641063 1.2014,0.676484 5.321,1.238984 9.1546,1.25 l 6.9704,0.02003 0.068,13.5 c 0.091,18.036153 1.3273,32.61631 3.1785,37.5 0.8339,2.2 1.6793,5.575 1.8787,7.5 0.1993,1.925 0.7887,7.775 1.3096,13 0.5209,5.225 1.4114,13.2621 1.9789,17.86021 0.5675,4.59812 1.0397,18.99812 1.0492,32 0.016,21.4969 -0.1926,24.45562 -2.2999,32.63979 -1.2746,4.95 -2.0153,9.83935 -1.6461,10.86521 0.3693,1.02587 2.2979,2.4244 4.286,3.10785 7.4129,2.54843 8.4528,6.44124 4.256,15.93102 -1.375,3.10912 -2.5,6.68797 -2.5,7.95299 0,2.7171 -5.4302,11.26759 -8.0441,12.66655 -1.0034,0.53701 -3.204,0.97638 -4.8902,0.97638 -2.7353,0 -3.0657,0.32125 -3.0657,2.98095 0,2.42602 0.5119,3.10324 2.75,3.63789 1.5125,0.36131 3.3125,1.09999 4,1.64149 1.5303,1.20535 1.7369,16.32073 0.2357,17.2485 -0.5578,0.34478 -1.9078,2.37841 -3,4.51918 -1.6929,3.31845 -1.9857,5.89839 -1.9857,17.49887 0,13.07937 0.1,13.7374 2.5755,16.98326 1.9829,2.59968 2.7374,5.07052 3.2787,10.73749 0.5439,5.69462 1.2254,7.9144 3.0108,9.80657 1.2693,1.34519 3.1855,3.66361 4.2583,5.15204 l 1.9506,2.70624 -3.7346,4.13372 c -3.521,3.89728 -3.8152,4.02848 -5.1437,2.29376 -0.775,-1.01198 -2.0497,-3.3206 -2.8326,-5.13027 -1.5627,-3.61201 -3.363,-3.45536 -3.363,0.29262 0,1.31136 -0.9385,3.04163 -2.0856,3.84506 -1.6626,1.16457 -2.3545,3.38666 -3.412,10.95811 -0.7296,5.22353 -1.7548,10.32919 -2.2783,11.34592 -0.5234,1.01673 -1.2215,4.3236 -1.5513,7.3486 -0.3297,3.025 -0.8984,6.53135 -1.2637,7.7919 -0.5404,1.86454 0.217,3.10101 4.0621,6.63117 4.1063,3.76997 4.5832,4.60676 3.6353,6.37802 -0.6002,1.12131 -2.6168,2.54227 -4.4816,3.15769 -3.5364,1.16711 -4.6249,3.56922 -4.6249,10.20606 0,3.49563 -3.3224,10.36115 -5.3997,11.15831 -0.8168,0.3134 -2.994,0.32495 -4.8383,0.0257 -2.9315,-0.47572 -4.107,0.0856 -9.3449,4.46231 -4.7771,3.99159 -6.3466,4.80784 -7.7426,4.02661 -0.963,-0.53892 -2.9908,-0.70752 -4.5063,-0.37467 -3.394,0.74543 -6.1279,-1.85713 -9.1661,-8.72552 -1.9046,-4.30562 -4.0021,-6.25992 -4.0021,-3.72888 0,0.55476 -1.3268,2.84029 -2.9485,5.07895 -1.6217,2.23866 -3.4566,5.60976 -4.0776,7.49134 -1.0155,3.07711 -1.502,3.42105 -4.839,3.42105 -3.1163,0 -4.4435,0.76027 -8.2923,4.75 -2.5203,2.6125 -5.0922,6.2836 -5.7155,8.15799 -0.6233,1.87439 -2.0621,4.05858 -3.1973,4.85375 -1.1371,0.79646 -1.818,2.08721 -1.5161,2.87403 0.3435,0.89495 -0.3783,1.78045 -1.9328,2.37149 -4.3611,1.65808 -2.4371,4.56722 2.7587,4.17131 2.203,-0.16786 3.0106,0.34938 3.8041,2.43624 0.554,1.45715 0.6868,3.60242 0.2952,4.76727 -0.3915,1.16486 -0.5987,3.10801 -0.4604,4.31812 0.1992,1.74167 -0.804,2.73508 -4.8135,4.76684 -4.6842,2.37369 -6.2964,4.65385 -4.2047,5.94664 0.4732,0.29245 1.1457,2.61368 1.4945,5.15831 0.5051,3.68489 0.2479,5.11765 -1.2636,7.03919 -3.6255,4.60902 -0.3001,8.58243 4.9225,5.88174 5.0982,-2.63641 7.2701,-1.94658 11.8286,3.75708 2.3077,2.8875 5.5067,6.66823 7.1089,8.40161 3.7541,4.0616 3.1299,6.52476 -2.4877,9.81689 -3.2037,1.8775 -5.7393,2.5315 -9.8148,2.5315 -7.3521,0 -11.6487,3.30728 -11.6487,8.96645 0,4.29513 -2.3108,7.12274 -4.2424,5.19117 -2.0232,-2.02321 -3.5331,-1.29918 -10.0984,4.84238 -3.5278,3.3 -6.811,6 -7.2961,6 -0.4851,0 -1.4441,-0.9 -2.131,-2 -0.687,-1.1 -2.1333,-2 -3.214,-2 -1.7291,0 -1.9207,0.56996 -1.5966,4.75 0.2026,2.6125 0.6685,5.48457 1.0353,6.38237 0.4733,1.15855 -0.6146,2.68244 -3.7479,5.25 -3.974,3.25639 -5.0087,3.61763 -10.3619,3.61763 -3.2708,0 -6.4387,0.49169 -7.0396,1.09264 -0.7902,0.79019 -1.6997,0.76776 -3.2857,-0.081 -2.7047,-1.4475 -2.892,-1.26169 -5.2783,5.23529 -4.2554,11.58607 -4.2129,11.15853 -1.6307,16.40375 2.7234,5.53202 3.4381,14.20075 1.2404,15.0441 -2.0236,0.77651 -1.6324,3.0854 0.7376,4.3538 1.551,0.83007 2.814,0.81933 4.8925,-0.0416 3.7174,-1.53976 8.053,-0.93854 9.4159,1.30571 0.8904,1.46604 0.6707,2.16595 -1.1491,3.66029 -1.2375,1.01621 -2.25,2.68789 -2.25,3.71485 0,1.02696 -0.7141,2.88666 -1.5868,4.13266 -1.3371,1.90905 -1.3765,2.53403 -0.25,3.97251 0.7352,0.93887 1.8993,2.0669 2.5868,2.50672 0.9831,0.62896 0.9243,1.42957 -0.2757,3.75 -1.2182,2.35576 -2.1855,2.95032 -4.8,2.95032 -3.8353,0 -5.6743,1.51061 -5.6743,4.66104 0,2.7998 -3.6447,6.33896 -6.528,6.33896 -1.3392,0 -2.5926,-0.96929 -3.3212,-2.56828 -1.6902,-3.70977 -5.5306,-3.02382 -5.9809,1.06828 -0.1815,1.65 -1.2402,3.9782 -2.3527,5.17378 -1.7188,1.84723 -1.8685,2.67344 -0.997,5.5 0.5641,1.82942 1.2078,8.08079 1.4305,13.89193 l 0.4047,10.56571 -9.8056,10.43429 c -9.7217,10.34502 -9.8058,10.47757 -9.8277,15.49316 -0.013,2.86754 -0.6581,5.8997 -1.4903,7 -0.8075,1.06762 -1.4825,2.89294 -1.5,4.05627 -0.017,1.16333 -0.9645,3.30083 -2.1044,4.75 -1.7784,2.2609 -2.8332,2.63486 -7.4319,2.63486 -4.7395,0 -5.5919,-0.32667 -7.3707,-2.82472 -1.1908,-1.67234 -3.69586,-3.32941 -6.14041,-4.06181 -2.27097,-0.6804 -6.15596,-2.78428 -8.63331,-4.67528 -2.47735,-1.891 -4.88243,-3.43819 -5.34462,-3.43819 -0.99053,0 -13.3987,6.49688 -17.00646,8.90453 -3.48572,2.32621 -9.77645,4.35166 -11.05718,3.56013 -1.3343,-0.82464 -4.88622,2.28719 -6.03283,5.28534 -1.06617,2.78781 -3.48586,2.91101 -4.90999,0.25 -0.5887,-1.1 -1.75592,-2 -2.59382,-2 -0.8379,0 -3.26984,-1.40343 -5.40431,-3.11874 l -3.88085,-3.11874 -9.81051,0.63577 c -19.80062,1.28318 -21.60585,1.60181 -25.31051,4.46745 -5.33146,4.124 -13.20759,8.84235 -16,9.58513 -1.375,0.36575 -4.15113,1.36587 -6.16917,2.22249 -3.45265,1.46558 -3.65949,1.80752 -3.50519,5.79462 0.0902,2.33042 -0.38607,4.8999 -1.05836,5.70996 -0.67228,0.81006 -4.94495,3.329 -9.49481,5.59765 -4.54986,2.26865 -10.52247,6.00055 -13.27247,8.29312 -2.75,2.29257 -6.0125,4.55384 -7.25,5.02505 -3.48491,1.32696 -7.19422,-0.56487 -7.88561,-4.02183 -0.45265,-2.26321 -1.21147,-3.03305 -3.21975,-3.2665 -1.72922,-0.20101 -2.72924,-0.9892 -2.92502,-2.30543 -0.84307,-5.66797 -1.44524,-6.69632 -4.72309,-8.0659 -5.77117,-2.41135 -12.04996,-1.83638 -18.16735,1.66363 -5.90699,3.37964 -10.1349,3.36121 -11.02644,-0.0481 -0.27723,-1.06011 -2.58007,-2.72943 -5.35768,-3.88375 -3.48755,-1.44936 -5.04769,-2.72664 -5.4918,-4.49613 -0.45622,-1.8177 -2.25184,-3.22147 -6.7868,-5.30574 -6.55108,-3.01088 -11.46523,-3.391 -24.21428,-1.873 -5.63087,0.67045 -6.26858,0.53433 -9.25,-1.97437 -1.7612,-1.48195 -3.20218,-3.30436 -3.20218,-4.0498 0,-0.74544 -1.08305,-2.61446 -2.40678,-4.15339 l -2.40677,-2.79804 -4.08709,3.28447 C 721.84656,714.21755 715.32408,717 711.5654,717 c -3.77762,0 -5.32545,-2.07949 -4.84085,-6.50363 0.39419,-3.59884 0.94253,-4.28503 5.42338,-6.78678 3.36244,-1.87732 5.43265,-3.85486 6.36069,-6.07597 0.75671,-1.81106 2.07683,-3.87461 2.9336,-4.58567 2.36061,-1.95913 1.96574,-5.93228 -0.69222,-6.96525 -6.53313,-2.53898 -10.99653,-3.41183 -12.58432,-2.46095 -2.69575,1.61441 -9.07406,1.57044 -12.39335,-0.0854 -4.45389,-2.2219 -5.76392,-1.95042 -9.8522,2.04168 -4.61348,4.50495 -9.75235,5.41531 -16.34857,2.89619 -3.63034,-1.38644 -6.21909,-1.62838 -12.10223,-1.13108 -4.11622,0.34795 -9.61822,0.18538 -12.22668,-0.36126 -2.60846,-0.54664 -9.91765,-1.38328 -16.24265,-1.85921 -6.325,-0.47593 -12.17967,-1.15498 -13.01038,-1.50901 -1.60022,-0.68198 -9.91242,4.23003 -13.76855,8.13638 -1.25248,1.26879 -3.44213,2.25 -5.02107,2.25 -1.54,0 -3.33905,0.53905 -3.99788,1.19788 -0.65883,0.65883 -4.16386,1.50487 -7.78896,1.88008 -5.96368,0.61726 -6.86934,1.01977 -9.51432,4.22859 -1.62203,1.96781 -4.58702,4.07802 -6.66104,4.74073 -2.05579,0.65688 -4.18022,1.60488 -4.72095,2.10667 -0.54073,0.50179 -1.07507,4.15993 -1.18741,8.1292 -0.11234,3.96927 -0.23243,7.7894 -0.26685,8.48919 -0.0344,0.69979 -1.86259,3.22512 -4.06259,5.61183 -2.2,2.38672 -4,5.31523 -4,6.50779 0,1.19257 -1.125,4.84119 -2.5,8.10804 -1.375,3.26685 -2.5,6.61919 -2.5,7.44963 0,0.83044 -0.70999,3.28433 -1.57775,5.45309 -2.05199,5.12842 -5.7781,6.87038 -18.52119,8.65868 -11.87116,1.66593 -20.97237,3.92417 -25.85565,6.41543 -2.64284,1.34828 -4.45811,3.52907 -6.96432,8.36665 -1.86438,3.59868 -5.29826,8.41609 -7.63085,10.70535 -3.99359,3.91942 -4.48199,4.1216 -8.36966,3.46478 -2.27072,-0.38363 -6.25528,-1.83222 -8.85458,-3.21907 -4.21205,-2.24734 -5.47507,-2.45269 -11.61399,-1.88824 -4.36288,0.40114 -9.49522,1.77235 -14,3.74038 -7.36622,3.21813 -17.28925,4.74171 -33.61201,5.16077 l -7.5,0.19255 -2.25963,-4.7293 c -1.3064,-2.73422 -3.41568,-5.31612 -5,-6.12033 -2.93509,-1.48986 -14.12067,-3.91175 -18.24037,-3.94938 -2.61525,-0.0239 -31.66638,3.03216 -36,3.78703 -1.375,0.23952 -4.975,0.70827 -8,1.04167 -10.57341,1.16536 -25.5252,3.52334 -28.53958,4.50085 -1.67177,0.54212 -6.84677,4.85563 -11.5,9.58557 l -8.46042,8.5999 -5.5,-0.66062 c -3.025,-0.36334 -7.92901,-1.0148 -10.8978,-1.44769 -5.03646,-0.73437 -5.61212,-0.59888 -8.59947,2.02405 -2.59087,2.27481 -4.99511,3.10196 -12.60221,4.33566 -5.17028,0.8385 -9.62552,1.48025 -9.90052,1.4261 -0.275,-0.0541 -3.05362,-0.65796 -6.17472,-1.3418 z"
        fill="#1c1c1e" stroke="#2e2e30" stroke-width="5.0" stroke-linejoin="round"/>
  <path d="m 233.82528,816.55171 c -8.78404,-1.92461 -15.9783,-5.95881 -21.93476,-12.29998 -9.11453,-9.70321 -10.65282,-10.72442 -16.32281,-10.83615 -10.66147,-0.21008 -21.33883,-8.32431 -27.09984,-20.59444 -1.63233,-3.47663 -3.29346,-6.56534 -3.6914,-6.8638 -0.39794,-0.29846 -1.78167,-2.54363 -3.07496,-4.98928 l -2.35143,-4.44662 -5.63923,-0.0107 c -6.46815,-0.0123 -7.98699,-1.08626 -9.91476,-7.01072 -1.15042,-3.53547 -2.11418,-4.40646 -8.29883,-7.5 -4.06355,-2.03257 -6.88206,-4.05525 -6.72248,-4.82433 0.15112,-0.72838 -0.1638,-1.05328 -0.69983,-0.72199 C 126.95294,737.14712 125,733.94915 125,731.41841 c 0,-0.94219 -0.94512,-4.30515 -2.10027,-7.47326 -1.93123,-5.29659 -2.39402,-5.81397 -5.75,-6.42843 -4.38615,-0.80307 -14.18931,-3.93235 -16.9537,-5.41181 C 97.468323,710.64509 77.509928,680.44749 76.00287,675.5 c -0.670143,-2.2 -2.519938,-6.35568 -4.110656,-9.23485 -3.096254,-5.60416 -3.651642,-10.07625 -1.649509,-13.28217 1.786403,-2.86049 0.3755,-4.47346 -7.742705,-8.85162 -4.394786,-2.37011 -8.180953,-5.32151 -10.173125,-7.93018 -3.630662,-4.7542 -5.909673,-13.28106 -4.936362,-18.46925 0.912599,-4.86458 8.979984,-15.28896 15.8908,-20.53352 5.488535,-4.16521 5.899315,-4.31008 8.111455,-2.86063 C 74.125863,596.12857 75,599.70287 75,609.08754 c 0,6.57081 0.165791,7.03815 4.25,11.98017 3.534389,4.27673 6.438927,6.26237 17.25,11.79272 16.12903,8.25071 17.47607,9.25147 22.1903,16.48594 2.09534,3.21551 4.57813,6.25864 5.51733,6.76251 1.09629,0.58815 4.85535,0.34452 10.5,-0.68054 4.8358,-0.87817 13.74237,-1.77495 19.79237,-1.99284 6.05,-0.21789 13.83975,-0.68607 17.31055,-1.0404 4.90337,-0.50058 7.17519,-0.25434 10.18807,1.10428 6.20862,2.7997 8.64228,1.58654 10.55658,-5.26237 C 194.02226,642.98822 197.66012,638 200.02097,638 c 2.14867,0 8.24428,6.68454 10.56069,11.58102 3.38222,7.14944 5.23186,7.56418 11.71814,2.62753 7.845,-5.97077 9.36687,-6.58926 12.75767,-5.18474 3.66023,1.51611 4.20159,3.3372 2.95153,9.92872 -1.92291,10.13947 -1.58777,11.41879 3.741,14.28053 8.46133,4.54404 21.0318,6.9762 37.25,7.20718 26.74937,0.38098 37.42429,5.31531 55.09032,25.46474 2.51363,2.86698 4.38791,4.09502 6.25,4.09502 1.46282,0 2.65968,-0.21573 2.65968,-0.4794 0,-0.26368 -1.9125,-2.24279 -4.25,-4.39803 -2.3375,-2.15525 -6.5,-7.67702 -9.25,-12.2706 -4.52208,-7.55365 -5,-8.92766 -5,-14.37483 0,-5.0909 0.50349,-6.80748 3.25383,-11.09353 2.88541,-4.49651 4.21586,-5.49932 11.75,-8.85641 4.6729,-2.08216 8.49617,-4.07823 8.49617,-4.43571 0,-0.35749 -0.93805,-1.31181 -2.08454,-2.12073 -1.1465,-0.80892 -2.72286,-2.68854 -3.50302,-4.17693 -1.73228,-3.30486 -0.58157,-7.3135 6.25607,-21.79383 2.46726,-5.225 4.92696,-12.2 5.46601,-15.5 0.53905,-3.3 1.5794,-7.125 2.31188,-8.5 0.73248,-1.375 2.28169,-4.28265 3.44269,-6.46144 1.161,-2.17879 2.11091,-5.43738 2.11091,-7.2413 0,-3.90194 4.55199,-8.82031 9.08462,-9.81585 1.60346,-0.35217 2.91538,-1.11382 2.91538,-1.69253 0,-1.00631 -1.62149,-0.88083 -10.80126,0.83582 -6.31212,1.18039 -8.01758,-5.10187 -3.69874,-13.6247 2.29076,-4.5206 2.5,-6.03689 2.5,-18.11684 0,-12.39128 0.16522,-13.51143 2.75,-18.64429 C 368.60347,517.58663 371.94862,515 377.99141,515 h 4.83795 l 0.71674,-7.64865 c 0.40406,-4.31193 0.22315,-12.51716 -0.41468,-18.8086 -1.52741,-15.06588 -1.42337,-23.19664 0.37427,-29.24997 1.46881,-4.94601 4.63071,-8.29278 7.8347,-8.29278 3.18124,0 12.44775,5.02844 16.48283,8.94435 3.04895,2.95891 4.66047,3.89461 5.49541,3.19082 0.64975,-0.5477 3.36969,-3.04131 6.0443,-5.54136 2.96467,-2.77119 6.19532,-4.79551 8.27624,-5.1859 1.87732,-0.35218 7.114,-2.90764 11.63707,-5.67878 4.52307,-2.77114 10.34947,-5.86253 12.94756,-6.86975 5.97636,-2.31691 26.37313,-6.43054 38.7762,-7.8204 5.225,-0.58551 13.775,-1.55725 19,-2.15942 9.60846,-1.10737 29.14345,-5.37871 52,-11.36984 11.6504,-3.05379 31.02772,-7.35012 56,-12.4163 5.775,-1.17158 16.35,-3.69752 23.5,-5.6132 11.89606,-3.18727 27.8928,-6.85872 47.79931,-10.97052 4.22196,-0.87207 9.33187,-2.58101 11.35536,-3.79764 4.79112,-2.88069 21.14193,-18.49583 21.91382,-20.92787 0.32855,-1.03516 -0.0671,-2.89625 -0.87927,-4.13576 -1.43162,-2.18491 -1.23612,-2.41642 6.41123,-7.59221 6.39685,-4.32943 8.37075,-6.30429 10.44234,-10.4474 4.08568,-8.17123 7.92895,-12.82783 14.12058,-17.10882 C 761.24968,319.56329 765,315.62661 765,312.55034 c 0,-3.87848 2.58491,-8.33847 8.43305,-14.55034 10.29059,-10.93062 17.5518,-22.72783 17.58226,-28.56572 0.008,-1.61386 0.34592,-3.38428 0.75,-3.93428 1.29991,-1.76933 6.56293,-5.03007 13.35297,-8.27291 9.78178,-4.67166 26.74142,-18.51382 39.40287,-32.15992 3.86164,-4.16194 9.36534,-10.04217 12.23045,-13.06717 3.12515,-3.29955 5.21712,-6.41733 5.22885,-7.79284 0.011,-1.28664 1.90831,-4.35856 4.32349,-7 5.06347,-5.53784 10.24204,-12.20858 10.80077,-13.91293 0.21741,-0.66318 1.41723,-2.46318 2.66626,-4 3.39854,-4.1816 9.22903,-13.11947 9.22903,-14.14768 0,-0.49591 0.63589,-1.4294 1.41308,-2.07441 0.7772,-0.64502 1.71704,-3.51262 2.08855,-6.37245 0.38245,-2.94413 1.80574,-6.93484 3.28105,-9.19969 3.89797,-5.98402 4.12654,-13.20333 0.7534,-23.79668 -1.481,-4.6511 -2.54499,-9.74625 -2.36441,-11.32255 0.42055,-3.67097 4.46186,-5.8508 8.20717,-4.42683 1.40988,0.53603 6.28891,1.1497 10.84229,1.36371 11.53723,0.54225 20.52079,3.20054 24.27887,7.18425 1.65,1.74907 4.73968,4.00271 6.86596,5.00808 4.18049,1.97668 10.63404,8.04779 10.63404,10.00387 0,0.66388 1.02649,2.73235 2.28108,4.5966 2.93481,4.36094 4.94065,11.15792 4.1833,14.17545 -0.37785,1.50548 -0.0351,2.82549 0.94487,3.63879 2.24078,1.85967 3.02797,7.67265 1.65816,12.24464 -1.77694,5.9309 -0.76828,6.55989 9.65736,6.0223 5.09084,-0.26251 9.60341,-1.02752 10.74774,-1.82206 2.98488,-2.07249 3.5264,-1.70831 3.53954,2.38043 0.007,2.14304 1.07819,5.61496 2.5,8.10207 1.36837,2.39364 2.48795,5.22763 2.48795,6.29775 0,2.61691 4.72508,6.85018 7.646,6.85018 1.2947,0 2.354,0.38429 2.354,0.85398 0,0.46968 1.0987,2.03952 2.4416,3.48851 3.9576,4.27034 7.421,11.92819 6.2409,13.7991 -0.7642,1.21144 -0.3939,2.25696 1.5367,4.33906 2.2468,2.42305 3.3192,2.75917 9.1926,2.8812 l 6.6491,0.13815 12.5905,-12.70012 c 10.9911,-11.08685 12.511,-13.01674 11.9649,-15.19269 -0.8611,-3.43089 0.9753,-7.16988 6.6001,-13.43778 2.631,-2.93182 4.7836,-5.74432 4.7836,-6.25 0,-1.4028 -1.6081,-1.09656 -2.9909,0.56958 -0.6796,0.81894 -1.6712,1.21985 -2.2034,0.89091 -1.6969,-1.04874 0.1917,-5.57007 4.2548,-10.18603 2.1667,-2.4615 3.9682,-5.42459 4.0033,-6.58466 0.1949,-6.44213 0.5723,-11.27336 0.9774,-12.5133 0.3254,-0.9959 -0.9947,-1.72316 -4.5412,-2.50167 -4.9169,-1.07934 -5.0042,-1.16402 -5.2527,-5.09591 -0.1389,-2.19908 -0.6962,-5.57333 -1.2382,-7.49833 -0.5421,-1.925 -1.17,-7.1 -1.3954,-11.5 -0.2253,-4.4 -0.6584,-8.675 -0.9623,-9.5 -1.7772,-4.82391 -2.654,-10.469121 -2.0917,-13.466802 0.4903,-2.613373 0.141,-4.144776 -1.4574,-6.389554 C 1050.946,86.519832 1050,84.740986 1050,84.190651 c 0,-0.550334 2.0318,-2.191302 4.515,-3.646596 4.4591,-2.613211 5.652,-3.717525 11.3469,-10.504747 2.7495,-3.276793 3.2953,-3.481451 10.2709,-3.85137 9.2295,-0.489438 11.5418,-2.392128 15.5318,-12.780787 3.6675,-9.548809 6.8929,-9.982861 5.6561,-0.761145 -0.7052,5.25739 1.249,11.993073 4.232,14.586723 3.1333,2.724411 3.114,5.142487 -0.053,6.585317 -2.8308,1.289796 -3.2442,4.232257 -1.1567,8.232325 0.732,1.402704 1.6269,6.400592 1.9886,11.106419 0.3683,4.791035 1.798,12.02955 3.2491,16.44963 1.4253,4.34147 2.9848,9.91858 3.4657,12.39358 0.4808,2.475 1.4049,6.975 2.0535,10 0.6485,3.025 1.2288,8.425 1.2895,12 l 0.1103,6.5 3,-0.165 c 1.65,-0.0908 4.27,-0.48692 5.8221,-0.88037 2.6734,-0.67765 4.0008,-0.30968 10.7186,2.97121 1.8142,0.88607 3.0165,0.94067 4.205,0.19097 1.2781,-0.80621 2.197,-0.56164 3.9594,1.0538 1.2622,1.15703 4.3199,3.11506 6.7949,4.35117 2.475,1.23612 5.5466,3.28468 6.8259,4.55236 2.7797,2.75467 4.0935,2.41157 6.4287,-1.67891 1.7078,-2.99143 1.6946,-3.15783 -0.4954,-6.23435 -1.2375,-1.73848 -4.7791,-5.95196 -7.8701,-9.36327 -6.1415,-6.77789 -6.6089,-8.10659 -7.5623,-21.49978 -0.5191,-7.29152 -0.3373,-9.13281 1.1211,-11.35873 1.6809,-2.5653 1.652,-2.90186 -0.8423,-9.79783 -2.4508,-6.775657 -4.9719,-17.524364 -6.5219,-27.806167 -0.7137,-4.733855 -5.3508,-11.584248 -11.2246,-16.582155 -1.4524,-1.235878 -2.9312,-3.404022 -3.2861,-4.818098 -1.2598,-5.019317 7.0556,-17.042339 11.2267,-16.232494 0.8432,0.163704 2.9584,2.322644 4.7005,4.797644 2.8678,4.074338 3.5656,4.508753 7.3762,4.592536 2.3148,0.05089 4.7295,0.613395 5.3661,1.25 C 1152.8922,48.492201 1156.3833,49 1160.2,49 h 6.8 v -3.133412 c 0,-3.188228 2.1896,-6.043336 11.5,-14.995554 4.3096,-4.143784 8.5831,-5.024473 12.8157,-2.641063 1.2014,0.676484 5.321,1.238984 9.1546,1.25 l 6.9704,0.02003 0.068,13.5 c 0.091,18.036153 1.3273,32.61631 3.1785,37.5 0.8339,2.2 1.6793,5.575 1.8787,7.5 0.1993,1.925 0.7887,7.775 1.3096,13 0.5209,5.225 1.4114,13.2621 1.9789,17.86021 0.5675,4.59812 1.0397,18.99812 1.0492,32 0.016,21.4969 -0.1926,24.45562 -2.2999,32.63979 -1.2746,4.95 -2.0153,9.83935 -1.6461,10.86521 0.3693,1.02587 2.2979,2.4244 4.286,3.10785 7.4129,2.54843 8.4528,6.44124 4.256,15.93102 -1.375,3.10912 -2.5,6.68797 -2.5,7.95299 0,2.7171 -5.4302,11.26759 -8.0441,12.66655 -1.0034,0.53701 -3.204,0.97638 -4.8902,0.97638 -2.7353,0 -3.0657,0.32125 -3.0657,2.98095 0,2.42602 0.5119,3.10324 2.75,3.63789 1.5125,0.36131 3.3125,1.09999 4,1.64149 1.5303,1.20535 1.7369,16.32073 0.2357,17.2485 -0.5578,0.34478 -1.9078,2.37841 -3,4.51918 -1.6929,3.31845 -1.9857,5.89839 -1.9857,17.49887 0,13.07937 0.1,13.7374 2.5755,16.98326 1.9829,2.59968 2.7374,5.07052 3.2787,10.73749 0.5439,5.69462 1.2254,7.9144 3.0108,9.80657 1.2693,1.34519 3.1855,3.66361 4.2583,5.15204 l 1.9506,2.70624 -3.7346,4.13372 c -3.521,3.89728 -3.8152,4.02848 -5.1437,2.29376 -0.775,-1.01198 -2.0497,-3.3206 -2.8326,-5.13027 -1.5627,-3.61201 -3.363,-3.45536 -3.363,0.29262 0,1.31136 -0.9385,3.04163 -2.0856,3.84506 -1.6626,1.16457 -2.3545,3.38666 -3.412,10.95811 -0.7296,5.22353 -1.7548,10.32919 -2.2783,11.34592 -0.5234,1.01673 -1.2215,4.3236 -1.5513,7.3486 -0.3297,3.025 -0.8984,6.53135 -1.2637,7.7919 -0.5404,1.86454 0.217,3.10101 4.0621,6.63117 4.1063,3.76997 4.5832,4.60676 3.6353,6.37802 -0.6002,1.12131 -2.6168,2.54227 -4.4816,3.15769 -3.5364,1.16711 -4.6249,3.56922 -4.6249,10.20606 0,3.49563 -3.3224,10.36115 -5.3997,11.15831 -0.8168,0.3134 -2.994,0.32495 -4.8383,0.0257 -2.9315,-0.47572 -4.107,0.0856 -9.3449,4.46231 -4.7771,3.99159 -6.3466,4.80784 -7.7426,4.02661 -0.963,-0.53892 -2.9908,-0.70752 -4.5063,-0.37467 -3.394,0.74543 -6.1279,-1.85713 -9.1661,-8.72552 -1.9046,-4.30562 -4.0021,-6.25992 -4.0021,-3.72888 0,0.55476 -1.3268,2.84029 -2.9485,5.07895 -1.6217,2.23866 -3.4566,5.60976 -4.0776,7.49134 -1.0155,3.07711 -1.502,3.42105 -4.839,3.42105 -3.1163,0 -4.4435,0.76027 -8.2923,4.75 -2.5203,2.6125 -5.0922,6.2836 -5.7155,8.15799 -0.6233,1.87439 -2.0621,4.05858 -3.1973,4.85375 -1.1371,0.79646 -1.818,2.08721 -1.5161,2.87403 0.3435,0.89495 -0.3783,1.78045 -1.9328,2.37149 -4.3611,1.65808 -2.4371,4.56722 2.7587,4.17131 2.203,-0.16786 3.0106,0.34938 3.8041,2.43624 0.554,1.45715 0.6868,3.60242 0.2952,4.76727 -0.3915,1.16486 -0.5987,3.10801 -0.4604,4.31812 0.1992,1.74167 -0.804,2.73508 -4.8135,4.76684 -4.6842,2.37369 -6.2964,4.65385 -4.2047,5.94664 0.4732,0.29245 1.1457,2.61368 1.4945,5.15831 0.5051,3.68489 0.2479,5.11765 -1.2636,7.03919 -3.6255,4.60902 -0.3001,8.58243 4.9225,5.88174 5.0982,-2.63641 7.2701,-1.94658 11.8286,3.75708 2.3077,2.8875 5.5067,6.66823 7.1089,8.40161 3.7541,4.0616 3.1299,6.52476 -2.4877,9.81689 -3.2037,1.8775 -5.7393,2.5315 -9.8148,2.5315 -7.3521,0 -11.6487,3.30728 -11.6487,8.96645 0,4.29513 -2.3108,7.12274 -4.2424,5.19117 -2.0232,-2.02321 -3.5331,-1.29918 -10.0984,4.84238 -3.5278,3.3 -6.811,6 -7.2961,6 -0.4851,0 -1.4441,-0.9 -2.131,-2 -0.687,-1.1 -2.1333,-2 -3.214,-2 -1.7291,0 -1.9207,0.56996 -1.5966,4.75 0.2026,2.6125 0.6685,5.48457 1.0353,6.38237 0.4733,1.15855 -0.6146,2.68244 -3.7479,5.25 -3.974,3.25639 -5.0087,3.61763 -10.3619,3.61763 -3.2708,0 -6.4387,0.49169 -7.0396,1.09264 -0.7902,0.79019 -1.6997,0.76776 -3.2857,-0.081 -2.7047,-1.4475 -2.892,-1.26169 -5.2783,5.23529 -4.2554,11.58607 -4.2129,11.15853 -1.6307,16.40375 2.7234,5.53202 3.4381,14.20075 1.2404,15.0441 -2.0236,0.77651 -1.6324,3.0854 0.7376,4.3538 1.551,0.83007 2.814,0.81933 4.8925,-0.0416 3.7174,-1.53976 8.053,-0.93854 9.4159,1.30571 0.8904,1.46604 0.6707,2.16595 -1.1491,3.66029 -1.2375,1.01621 -2.25,2.68789 -2.25,3.71485 0,1.02696 -0.7141,2.88666 -1.5868,4.13266 -1.3371,1.90905 -1.3765,2.53403 -0.25,3.97251 0.7352,0.93887 1.8993,2.0669 2.5868,2.50672 0.9831,0.62896 0.9243,1.42957 -0.2757,3.75 -1.2182,2.35576 -2.1855,2.95032 -4.8,2.95032 -3.8353,0 -5.6743,1.51061 -5.6743,4.66104 0,2.7998 -3.6447,6.33896 -6.528,6.33896 -1.3392,0 -2.5926,-0.96929 -3.3212,-2.56828 -1.6902,-3.70977 -5.5306,-3.02382 -5.9809,1.06828 -0.1815,1.65 -1.2402,3.9782 -2.3527,5.17378 -1.7188,1.84723 -1.8685,2.67344 -0.997,5.5 0.5641,1.82942 1.2078,8.08079 1.4305,13.89193 l 0.4047,10.56571 -9.8056,10.43429 c -9.7217,10.34502 -9.8058,10.47757 -9.8277,15.49316 -0.013,2.86754 -0.6581,5.8997 -1.4903,7 -0.8075,1.06762 -1.4825,2.89294 -1.5,4.05627 -0.017,1.16333 -0.9645,3.30083 -2.1044,4.75 -1.7784,2.2609 -2.8332,2.63486 -7.4319,2.63486 -4.7395,0 -5.5919,-0.32667 -7.3707,-2.82472 -1.1908,-1.67234 -3.69586,-3.32941 -6.14041,-4.06181 -2.27097,-0.6804 -6.15596,-2.78428 -8.63331,-4.67528 -2.47735,-1.891 -4.88243,-3.43819 -5.34462,-3.43819 -0.99053,0 -13.3987,6.49688 -17.00646,8.90453 -3.48572,2.32621 -9.77645,4.35166 -11.05718,3.56013 -1.3343,-0.82464 -4.88622,2.28719 -6.03283,5.28534 -1.06617,2.78781 -3.48586,2.91101 -4.90999,0.25 -0.5887,-1.1 -1.75592,-2 -2.59382,-2 -0.8379,0 -3.26984,-1.40343 -5.40431,-3.11874 l -3.88085,-3.11874 -9.81051,0.63577 c -19.80062,1.28318 -21.60585,1.60181 -25.31051,4.46745 -5.33146,4.124 -13.20759,8.84235 -16,9.58513 -1.375,0.36575 -4.15113,1.36587 -6.16917,2.22249 -3.45265,1.46558 -3.65949,1.80752 -3.50519,5.79462 0.0902,2.33042 -0.38607,4.8999 -1.05836,5.70996 -0.67228,0.81006 -4.94495,3.329 -9.49481,5.59765 -4.54986,2.26865 -10.52247,6.00055 -13.27247,8.29312 -2.75,2.29257 -6.0125,4.55384 -7.25,5.02505 -3.48491,1.32696 -7.19422,-0.56487 -7.88561,-4.02183 -0.45265,-2.26321 -1.21147,-3.03305 -3.21975,-3.2665 -1.72922,-0.20101 -2.72924,-0.9892 -2.92502,-2.30543 -0.84307,-5.66797 -1.44524,-6.69632 -4.72309,-8.0659 -5.77117,-2.41135 -12.04996,-1.83638 -18.16735,1.66363 -5.90699,3.37964 -10.1349,3.36121 -11.02644,-0.0481 -0.27723,-1.06011 -2.58007,-2.72943 -5.35768,-3.88375 -3.48755,-1.44936 -5.04769,-2.72664 -5.4918,-4.49613 -0.45622,-1.8177 -2.25184,-3.22147 -6.7868,-5.30574 -6.55108,-3.01088 -11.46523,-3.391 -24.21428,-1.873 -5.63087,0.67045 -6.26858,0.53433 -9.25,-1.97437 -1.7612,-1.48195 -3.20218,-3.30436 -3.20218,-4.0498 0,-0.74544 -1.08305,-2.61446 -2.40678,-4.15339 l -2.40677,-2.79804 -4.08709,3.28447 C 721.84656,714.21755 715.32408,717 711.5654,717 c -3.77762,0 -5.32545,-2.07949 -4.84085,-6.50363 0.39419,-3.59884 0.94253,-4.28503 5.42338,-6.78678 3.36244,-1.87732 5.43265,-3.85486 6.36069,-6.07597 0.75671,-1.81106 2.07683,-3.87461 2.9336,-4.58567 2.36061,-1.95913 1.96574,-5.93228 -0.69222,-6.96525 -6.53313,-2.53898 -10.99653,-3.41183 -12.58432,-2.46095 -2.69575,1.61441 -9.07406,1.57044 -12.39335,-0.0854 -4.45389,-2.2219 -5.76392,-1.95042 -9.8522,2.04168 -4.61348,4.50495 -9.75235,5.41531 -16.34857,2.89619 -3.63034,-1.38644 -6.21909,-1.62838 -12.10223,-1.13108 -4.11622,0.34795 -9.61822,0.18538 -12.22668,-0.36126 -2.60846,-0.54664 -9.91765,-1.38328 -16.24265,-1.85921 -6.325,-0.47593 -12.17967,-1.15498 -13.01038,-1.50901 -1.60022,-0.68198 -9.91242,4.23003 -13.76855,8.13638 -1.25248,1.26879 -3.44213,2.25 -5.02107,2.25 -1.54,0 -3.33905,0.53905 -3.99788,1.19788 -0.65883,0.65883 -4.16386,1.50487 -7.78896,1.88008 -5.96368,0.61726 -6.86934,1.01977 -9.51432,4.22859 -1.62203,1.96781 -4.58702,4.07802 -6.66104,4.74073 -2.05579,0.65688 -4.18022,1.60488 -4.72095,2.10667 -0.54073,0.50179 -1.07507,4.15993 -1.18741,8.1292 -0.11234,3.96927 -0.23243,7.7894 -0.26685,8.48919 -0.0344,0.69979 -1.86259,3.22512 -4.06259,5.61183 -2.2,2.38672 -4,5.31523 -4,6.50779 0,1.19257 -1.125,4.84119 -2.5,8.10804 -1.375,3.26685 -2.5,6.61919 -2.5,7.44963 0,0.83044 -0.70999,3.28433 -1.57775,5.45309 -2.05199,5.12842 -5.7781,6.87038 -18.52119,8.65868 -11.87116,1.66593 -20.97237,3.92417 -25.85565,6.41543 -2.64284,1.34828 -4.45811,3.52907 -6.96432,8.36665 -1.86438,3.59868 -5.29826,8.41609 -7.63085,10.70535 -3.99359,3.91942 -4.48199,4.1216 -8.36966,3.46478 -2.27072,-0.38363 -6.25528,-1.83222 -8.85458,-3.21907 -4.21205,-2.24734 -5.47507,-2.45269 -11.61399,-1.88824 -4.36288,0.40114 -9.49522,1.77235 -14,3.74038 -7.36622,3.21813 -17.28925,4.74171 -33.61201,5.16077 l -7.5,0.19255 -2.25963,-4.7293 c -1.3064,-2.73422 -3.41568,-5.31612 -5,-6.12033 -2.93509,-1.48986 -14.12067,-3.91175 -18.24037,-3.94938 -2.61525,-0.0239 -31.66638,3.03216 -36,3.78703 -1.375,0.23952 -4.975,0.70827 -8,1.04167 -10.57341,1.16536 -25.5252,3.52334 -28.53958,4.50085 -1.67177,0.54212 -6.84677,4.85563 -11.5,9.58557 l -8.46042,8.5999 -5.5,-0.66062 c -3.025,-0.36334 -7.92901,-1.0148 -10.8978,-1.44769 -5.03646,-0.73437 -5.61212,-0.59888 -8.59947,2.02405 -2.59087,2.27481 -4.99511,3.10196 -12.60221,4.33566 -5.17028,0.8385 -9.62552,1.48025 -9.90052,1.4261 -0.275,-0.0541 -3.05362,-0.65796 -6.17472,-1.3418 z"
        fill="none" stroke="rgba(240,168,32,0.18)" stroke-width="29.1" stroke-linejoin="round"/>
</svg>